<?xml version='1.0' encoding='utf-8'?>
<svg xmlns="http://www.w3.org/2000/svg" width="114.88mm" height="131.75mm" version="1.1" viewBox="0 0 114.88 131.75"><defs><linearGradient id="f" x1="74.752" x2="74.899" y1="143.78" y2="162.13" gradientUnits="userSpaceOnUse"><stop stop-color="#826800" offset="0"/><stop stop-color="#d4aa00" offset=".19956"/><stop stop-color="#ffe165" offset=".46053"/><stop stop-color="#d4aa00" offset=".77412"/><stop stop-color="#826800" offset="1"/></linearGradient><linearGradient id="e" x1="73.871" x2="73.871" y1="143.78" y2="162.13" gradientTransform="translate(-5.5807 -17.917)" gradientUnits="userSpaceOnUse"><stop stop-color="#15414b" offset="0"/><stop stop-color="#277c90" stop-opacity=".99608" offset=".19956"/><stop stop-color="#339fb9" stop-opacity=".99608" offset=".46053"/><stop stop-color="#26788c" stop-opacity=".99608" offset=".77412"/><stop stop-color="#15414b" offset="1"/></linearGradient><linearGradient id="d" x1="73.871" x2="73.871" y1="143.78" y2="162.13" gradientTransform="translate(-5.5807 -17.917)" gradientUnits="userSpaceOnUse"><stop stop-color="#501616" offset="0"/><stop stop-color="#a02c2c" offset=".19956"/><stop stop-color="#d35f5f" offset=".46053"/><stop stop-color="#a02c2c" offset=".77412"/><stop stop-color="#501616" offset="1"/></linearGradient><linearGradient id="c" x1="74.752" x2="74.899" y1="143.78" y2="162.13" gradientUnits="userSpaceOnUse"><stop stop-color="#2d5016" offset="0"/><stop stop-color="#447821" offset=".19956"/><stop stop-color="#5aa02c" offset=".46053"/><stop stop-color="#447821" offset=".77412"/><stop stop-color="#2d5016" offset="1"/></linearGradient><linearGradient id="b" x1="74.752" x2="74.899" y1="143.78" y2="162.13" gradientTransform="rotate(-.11282 -28225 -3743)" gradientUnits="userSpaceOnUse"><stop stop-color="#1f1c24" offset="0"/><stop stop-color="#5d536c" offset=".19956"/><stop stop-color="#7c6f91" offset=".46053"/><stop stop-color="#5d536c" offset=".77412"/><stop stop-color="#1f1c24" offset="1"/></linearGradient><linearGradient id="a" x1="81.727" x2="81.727" y1="89.427" y2="104.88" gradientUnits="userSpaceOnUse"><stop stop-color="#c2b16d" offset="0"/><stop stop-color="#f0ecdb" stop-opacity=".99608" offset=".22368"/><stop stop-color="#f0ecdb" stop-opacity=".99608" offset=".83114"/><stop stop-color="#d6cb9c" stop-opacity=".99669" offset="1"/></linearGradient></defs><g transform="translate(-754.93 46.03)"><g transform="translate(718.38 -169.79)"><path transform="matrix(.98928 .36772 .36699 -.98863 22.27 212.59)" d="m101.81 64.085c0.88908-0.26927 1.6924-0.81484 2.2704-1.542 0.57806-0.7272 0.92837-1.6328 0.99015-2.5597 0.0618-0.92691-0.16527-1.871-0.64173-2.6685-0.47645-0.79748-1.2002-1.4448-2.0457-1.8297-1.001-0.45563-2.1555-0.53771-3.2281-0.29457-1.0726 0.24315-2.0626 0.80157-2.8743 1.5436-1.6235 1.484-2.4989 3.6329-2.9199 5.7918s-0.43611 4.3731-0.6226 6.5647c-0.18649 2.1916-0.56277 4.4194-1.6311 6.342-1.491 2.6833-4.3387 4.5653-7.3917 4.8852-3.053 0.31988-6.2289-0.931-8.2438-3.2469" fill="none" stroke="#000" stroke-linecap="round" stroke-linejoin="round" stroke-width="5.6873"/><g transform="translate(34.772 71.409)"><g transform="translate(-19.523 22.01)" stroke="#000" stroke-linecap="square" stroke-linejoin="round"><path d="m29.666 143.92h88.998c3.3528 3.9456 2.7127 13.741 0 17.917h-88.998c-2.9459-3.0633-3.7886-13.171 0-17.917z" fill="url(#f)" stroke-width=".5"/><path d="m37.177 143.92h6.9577c-0.77133 5.6638-1.1692 11.477 0 17.917h-6.9577c-1.3707-5.9723-1.3707-11.945 0-17.917z" fill="#9d7d00" opacity=".5" stroke-width=".5"/><path d="m114.85 143.92h0.93462c1.3699 5.7224 1.117 11.742 0 17.917h-0.93462c0.77703-5.671 1.2736-11.461 0-17.917z" fill="#9d7d00" opacity=".5" stroke-width=".5"/><path d="m46.367 143.92h3.1154c-0.77188 5.9723-0.66058 11.945-0.05192 17.917h-3.0375c-0.62794-5.9723-0.91169-11.945-0.02596-17.917z" fill="#d4aa00" opacity=".5" stroke-width=".5"/><path d="m24.085 126.01h88.998c3.3528 3.9456 2.7127 13.741 0 17.917h-88.998c-2.9459-3.0633-3.7886-13.171 0-17.917z" fill="url(#e)" stroke-width=".5"/><path d="m31.596 126.01h6.9577c-0.95612 6.042-0.98212 12.013 0 17.917h-6.9577c-1.2841-5.9723-1.2065-11.945 0-17.917z" fill="#003542" opacity=".50605" stroke-width=".5"/><path d="m109.27 126.01h0.93462c1.0822 5.7361 1.6579 11.502 0 17.917h-0.93462c1.0769-5.9388 1.1321-11.979 0-17.917z" fill="#18677a" opacity=".5" stroke-width=".5"/><g transform="translate(6.9577 -17.917)"><path d="m24.085 126.01h88.998c3.3528 3.9456 2.7127 13.741 0 17.917h-88.998c-2.9459-3.0633-3.7886-13.171 0-17.917z" fill="url(#d)" stroke-width=".5"/><path d="m33.986 126.01h14.092c-1.9365 6.042-1.9892 12.013 0 17.917h-14.092c-2.6008-5.9723-2.4437-11.945 0-17.917z" fill="#782121" opacity=".50605" stroke-width=".5"/><path d="m109.27 126.01h0.93462c1.0822 5.7361 1.6579 11.502 0 17.917h-0.93462c1.0769-5.9388 1.1321-11.979 0-17.917z" fill="#a02c2c" opacity=".5" stroke-width=".5"/></g><g transform="translate(-.67906 -53.751)"><path d="m29.666 143.92h88.998c3.3528 3.9456 2.7127 13.741 0 17.917h-88.998c-2.9459-3.0633-3.7886-13.171 0-17.917z" fill="url(#c)" stroke-width=".5"/><path d="m37.177 143.92h6.9577c-0.77133 5.6638-1.1692 11.477 0 17.917h-6.9577c-1.3707-5.9723-1.3707-11.945 0-17.917z" fill="#2d5016" opacity=".5" stroke-width=".5"/><path d="m114.85 143.92h0.93462c1.3699 5.7224 1.117 11.742 0 17.917h-0.93462c0.77703-5.671 1.2736-11.461 0-17.917z" fill="#9d7d00" opacity=".5" stroke-width=".5"/><path d="m46.367 143.92h3.1154c-0.77188 5.9723-0.66058 12.092-0.05192 18.064h-3.0115c-0.62794-5.9723-0.93765-12.092-0.05192-18.064z" fill="#2d5016" opacity=".5" stroke-width=".5"/><path d="m51.654 143.92h3.1154c-0.77188 5.9723-0.66058 12.092-0.05192 18.064h-3.0115c-0.62794-5.9723-0.93765-12.092-0.05192-18.064z" fill="#2d5016" opacity=".5" stroke-width=".5"/></g></g><g><g transform="translate(-23.677 5.8154)" stroke="#000" stroke-linecap="square" stroke-linejoin="round" stroke-width=".5"><path d="m126.26 88.105-89.085 0.13847c-0.96817 0.39368-0.33349 0.93495 0 1.2608 6.3199 6.1743 2.4811 12.625 0 15.449-0.37209 0.42345-0.38551 1.0527 0 1.3541l89.12-0.28534c0.36521-0.38718 0.16916-0.92845-0.0203-1.2239-4.1061-6.4036-2.6385-10.343-2e-5 -15.449 0.15495-0.29983 0.2802-0.95262-0.0148-1.2441 0-5e-6 -2e-5 0-2e-5 0zm0.0149 1.2441c-0.41712 0.59176-2.5908 7.6644 4e-5 15.449l-89.1 0.1551c0.76091-7.2827 1.3038-7.371 0-15.449l88.503-0.15406z" fill="url(#b)"/><path d="m37.177 89.504 89.1-0.1551c-2.8291 5.5916-3.2771 10.677 0 15.449l-89.1 0.1551s1.6636-5.1101 1.6615-7.7532c-2e-3 -2.6243-1.6615-7.6955-1.6615-7.6955z" fill="url(#a)"/></g><path d="m25.478 99.101c0.90744-0.0264 1.3736-0.0416 2.4156-0.059 4.8114-0.0801 9.6395-0.0841 14.458-0.0977 6.2988-9e-3 12.598-0.0151 18.897-0.0163 2.8832-1e-3 5.7663 3.1e-4 8.6492 0.0127 0.23845 8.3e-4 0.47688 2e-3 0.71535 2e-3 4.7148 9e-3 -12.268 0.0198-6.6315-6e-3 0.54778-2e-3 1.0955-5e-3 1.6433-8e-3 0.76989-4e-3 1.5398-7e-3 2.3097-0.0107 3.9636-0.022 7.9246 0.0231 11.886 0.0449 3.2027 2e-3 6.3997 0.0425 9.5927 0.1077 0.8233 0.0163 1.6435 0.0415 2.4633 0.0677l9.1366-0.37591c-1.005-0.0179-2.01-0.0359-3.0155-0.0519-3.1959-0.0394-6.3893-0.0965-9.5875-0.11956-4.1539-2e-3 -8.3086 0.0112-12.462-0.0223-5.031-0.0301-10.063-0.0497-15.095-0.0224-2.5326 0.0162-5.0657 0.0215-7.5984 0.035-5.7308 0.0326-11.461 0.0799-17.193 0.0901-6.6551 0.0184-13.31 0.0326-19.966 0.032z" fill="#d1c591"/><path d="m23.92 108.97c0.90744-0.0264 1.3736-0.0416 2.4156-0.059 4.8114-0.0801 9.6395-0.0841 14.458-0.0977 6.2988-9e-3 12.598-0.0151 18.897-0.0163 2.8832-1e-3 5.7663 3.1e-4 8.6492 0.0127 0.23845 8.3e-4 0.47688 2e-3 0.71535 2e-3 4.7148 9e-3 -12.268 0.0198-6.6315-6e-3 0.54778-2e-3 1.0955-5e-3 1.6433-8e-3 0.76989-4e-3 1.5398-7e-3 2.3097-0.0107 3.9636-0.022 7.9246 0.0231 11.886 0.0449 3.2027 2e-3 6.3997 0.0425 9.5927 0.1077 0.8233 0.0163 1.6435 0.0415 2.4633 0.0677l9.1366-0.37591c-1.005-0.0179-2.01-0.0359-3.0155-0.0519-3.1959-0.0394-6.3893-0.0965-9.5875-0.11956-4.1539-2e-3 -8.3086 0.0112-12.462-0.0223-5.031-0.0301-10.063-0.0497-15.095-0.0224-2.5326 0.0162-5.0657 0.0215-7.5984 0.035-5.7308 0.0326-11.461 0.0799-17.193 0.0901-6.6551 0.0184-13.31 0.0326-19.966 0.032z" fill="#d1c591"/><path d="m28.423 104.61c0.86083-0.0264 1.3031-0.0416 2.2915-0.059 4.5643-0.0801 9.1444-0.0841 13.715-0.0977 5.9753-9e-3 11.951-0.0151 17.926-0.0163 2.7351-1e-3 5.4702 3.1e-4 8.205 0.0127 0.22621 8.3e-4 0.45239 2e-3 0.67861 2e-3 4.4727 9e-3 -11.637 0.0198-6.2909-6e-3 0.51964-2e-3 1.0393-5e-3 1.5589-8e-3 0.73034-4e-3 1.4607-7e-3 2.191-0.0107 3.76-0.022 7.5176 0.0231 11.276 0.0449 3.0382 2e-3 6.071 0.0425 9.1 0.1077 0.78101 0.0163 1.5591 0.0415 2.3367 0.0677l8.6674-0.37591c-0.95341-0.0179-1.9068-0.0359-2.8606-0.0519-3.0318-0.0394-6.0612-0.0965-9.0951-0.11956-3.9406-2e-3 -7.8819 0.0112-11.822-0.0223-4.7726-0.0301-9.546-0.0497-14.32-0.0224-2.4025 0.0162-4.8055 0.0215-7.2082 0.035-5.4364 0.0326-10.872 0.0799-16.31 0.0901-6.3133 0.0184-12.627 0.0326-18.941 0.032z" fill="#d1c591"/><path d="m23.958 102.63c0.86083-0.0264 1.3031-0.0416 2.2915-0.059 4.5643-0.0801 9.1444-0.0841 13.715-0.0977 5.9753-9e-3 11.951-0.0151 17.926-0.0163 2.7351-1e-3 5.4702 3.1e-4 8.205 0.0127 0.22621 8.3e-4 0.45239 2e-3 0.67861 2e-3 4.4727 9e-3 -11.637 0.0198-6.2909-6e-3 0.51964-2e-3 1.0393-5e-3 1.5589-8e-3 0.73034-4e-3 1.4607-7e-3 2.191-0.0107 3.76-0.022 7.5176 0.0231 11.276 0.0449 3.0382 2e-3 6.071 0.0425 9.1 0.1077 0.78101 0.0163 1.5591 0.0415 2.3367 0.0677l8.6674-0.37591c-0.95341-0.0179-1.9068-0.0359-2.8606-0.0519-3.0318-0.0394-6.0612-0.0965-9.0951-0.11956-3.9406-2e-3 -7.8819 0.0112-11.822-0.0223-4.7726-0.0301-9.546-0.0497-14.32-0.0224-2.4025 0.0162-4.8055 0.0215-7.2082 0.035-5.4364 0.0326-10.872 0.0799-16.31 0.0901-6.3133 0.0184-12.627 0.0326-18.941 0.032z" fill="#d1c591"/><path d="m23.713 98.167c0.90744-0.0264 1.3736-0.0416 2.4156-0.059 4.8114-0.0801 9.6395-0.0841 14.458-0.0977 6.2988-9e-3 12.598-0.0151 18.897-0.0163 2.8832-1e-3 5.7663 3.1e-4 8.6492 0.0127 0.23845 8.3e-4 0.47688 2e-3 0.71535 2e-3 4.7148 9e-3 -12.268 0.0198-6.6315-6e-3 0.54778-2e-3 1.0955-5e-3 1.6433-8e-3 0.76989-4e-3 1.5398-7e-3 2.3097-0.0107 3.9636-0.022 7.9246 0.0231 11.886 0.0449 3.2027 2e-3 6.3997 0.0425 9.5927 0.1077 0.8233 0.0163 1.6435 0.0415 2.4633 0.0677l9.1366-0.37591c-1.005-0.0179-2.01-0.0359-3.0155-0.0519-3.1959-0.0394-6.3893-0.0965-9.5875-0.11956-4.1539-2e-3 -8.3086 0.0112-12.462-0.0223-5.031-0.0301-10.063-0.0497-15.095-0.0224-2.5326 0.0162-5.0657 0.0215-7.5984 0.035-5.7308 0.0326-11.461 0.0799-17.193 0.0901-6.6551 0.0184-13.31 0.0326-19.966 0.032z" fill="#d1c591"/><path d="m23.333 107.94c0.90744-0.0264 1.3736-0.0416 2.4156-0.059 4.8114-0.0801 9.6395-0.0841 14.458-0.0977 6.2988-9e-3 12.598-0.0151 18.897-0.0163 2.8832-1e-3 5.7663 3.1e-4 8.6492 0.0127 0.23845 8.3e-4 0.47688 2e-3 0.71535 2e-3 4.7148 9e-3 -12.268 0.0198-6.6315-6e-3 0.54778-2e-3 1.0955-5e-3 1.6433-8e-3 0.76989-4e-3 1.5398-7e-3 2.3097-0.0107 3.9636-0.022 7.9246 0.0231 11.886 0.0449 3.2027 2e-3 6.3997 0.0425 9.5927 0.1077 0.8233 0.0163 1.6435 0.0415 2.4633 0.0677l9.1366-0.37591c-1.005-0.0179-2.01-0.0359-3.0155-0.0519-3.1959-0.0394-6.3893-0.0965-9.5875-0.11956-4.1539-2e-3 -8.3086 0.0112-12.462-0.0223-5.031-0.0301-10.063-0.0497-15.095-0.0224-2.5326 0.0162-5.0657 0.0215-7.5984 0.035-5.7308 0.0326-11.461 0.0799-17.193 0.0901-6.6551 0.0184-13.31 0.0326-19.966 0.032z" fill="#d1c591"/></g></g><path d="m76.165 147.27c8.2844-10.043 51.008-21.081 58.862 4.8461 5.2794 17.429-5.1477 13.496-22.44 15.478-10.788 1.2367-13.665 2.7315-23.235-1.1748-11.945-1.1013-18.197-5.7191-19.366-9.9528-1.2592-4.5577 3.171-5.5497 6.1795-9.1968z" stroke-linecap="round" stroke-linejoin="round" stroke-width="1.5957"/><path d="m108.7 167.02c-0.24825 5.1346 2.571 13.105 8.7975 20.088 3.4139 3.7521 1.937 7.3415 2.7244 11.885-0.0615 5.644 1.0453 8.7189 2.4003 9.555 6.1331 3.7844 7.6977-6.0915 3.5782-7.6665-2.3321-5.7039 0.0508-7.9461-0.43404-13.544-0.1052-0.49082-3.9141-6.4921-1.2598-11.056 10.634-10.487 13.222-12.856 10.795-18.023-2.3177-4.9325-29.82 3.2199-28.886 6.2685z"/><path d="m79.191 154.15c-6.84 0.29911-2.3853 35.535 10.722 39.445 0.49017 0.15257 1.0108 0.26306 1.5549 0.32195v1e-3c3.2896 0.35598 6.1641-1.2744 6.4203-3.6416 0.11527-1.0652-0.32691-1.6191-1.1462-1.9394l-0.43615-2.1746-1.0599 1.835c-0.30113-0.0411-0.63194-0.0747-0.96945-0.10697l-0.37672-1.8758-1.0087 1.7456c-0.17317-0.0167-0.34733-0.0336-0.52555-0.0527-0.09485-0.0109-0.18487-0.0233-0.27905-0.0341l-0.43873-2.1844-1.1514 1.9932c-0.25417-0.0319-0.50898-0.0624-0.74982-0.0863l-0.39894-1.9875-0.93224 1.6128c-3.0541-2.3224-4.1304-6.9996-3.9977-9.7152 0.66266-13.556 12.39-11.952 11.337-11.866 1.5977-2.5477-10.831-11.54-16.564-11.29z"/><g transform="matrix(1.6981 0 0 1.6981 -5.2015 -19.994)"><path d="m49.664 84.655-5.1964 7.044c-0.90686-0.19782-1.8539-0.30515-2.8292-0.30515-2.6251 0-5.0496 0.76155-7.0142 2.048l-6.735-5.6126c1.3597 2.9946 3.7454 5.0121 2.6976 10.3-0.51943 1.1884-0.80741 2.4797-0.80741 3.8318 0 5.8358 4.7134 9.4911 11.201 8.5927 7.6025-1.0527 12.517-2.7569 12.517-8.5927 0-3.141-1.5396-5.9602-3.9814-7.8957-1.7145-2.6957-0.48906-6.1264 0.14766-9.41z" stroke-linecap="square" stroke-linejoin="round" stroke-width=".5"/><g transform="matrix(.56428 .46981 -.46981 .56428 52.604 9.9973)" stroke-width="1.3619"><path d="m75.633 102.44c0 2.5525-2.2272 4.2576-4.9198 4.6217-1.3564 0.18339-1.0256 0.41494 1.332-0.67375 2.1199-0.97888 3.0961-2.6628 3.3266-4.4432 0.16663-1.2872 0.26121-2.0572 0.26121 0.49526z" fill="#fff" stroke-linecap="square" stroke-linejoin="round" stroke-width=".68096"/></g><path d="m40.116 105.62c0.80658-1.2535 1.9751-1.2775 3.1418-0.44812 0.0518 0.18149 0.14227 0.36486-0.11006 0.5314-1.2654-0.11638-0.96342 0.71295-0.88533 1.5906-0.16393 0.2146-0.35528 0.24576-0.57423 0.0923-0.14013-0.85148-0.05481-1.656-1.3593-1.2325-0.14889-0.0394-0.23703-0.18672-0.21282-0.53366z" fill="#fff" stroke-linecap="square" stroke-linejoin="round" stroke-width=".5"/><path d="m33.439 106.08c1.97 0 3.5671 1.1494 3.5671 2.567 0 0.0556-0.0035 0.1077-0.0088 0.15827l0.6163 1.0876-1.0461-0.36214c-0.20667 0.13119-0.47802 0.20766-0.79795 0.25016l-0.5302 1.1998-0.36348-1.1508c-0.1441 1e-3 -0.29691-6.3e-4 -0.44941-3e-3l-0.55392 1.2537-0.39947-1.2651c-0.05645-3.2e-4 -0.1105-2e-3 -0.16739-2e-3 -0.1067 0-0.21112 1e-3 -0.3147 3e-3l-0.48524 1.098-0.34307-1.0863c-0.20186 3e-3 -0.39974 4e-3 -0.58063-1e-3l-0.5098 1.154-0.39765-1.2592c-0.50549-0.1371-0.8026-0.43658-0.8026-1.0745 0-1.4177 1.597-2.5671 3.5671-2.5671z" stroke-linecap="square" stroke-linejoin="round" stroke-width=".5"/><g transform="matrix(.49306 .54408 -.54408 .49306 58.394 12.771)" stroke-linecap="square" stroke-linejoin="round"><path d="m75.633 102.44c0 2.5525-2.2272 4.2576-4.9198 4.6217-1.3564 0.18339-1.0256 0.41494 1.332-0.67375 2.1199-0.97888 3.0961-2.6628 3.3266-4.4432 0.16663-1.2872 0.26121-2.0572 0.26121 0.49526z" fill="#fff" stroke-width=".68096"/><circle cx="73.108" cy="103.79" r="1.8747" stroke-width="1.2418"/><circle cx="78.897" cy="95.721" r="1.8747" stroke-width="1.2418"/></g></g><g transform="matrix(1.3973 -.31153 .31023 1.397 -11.107 2.4492)" fill-rule="evenodd" stroke="#000" stroke-linecap="round" stroke-linejoin="round" stroke-width=".71842"><path transform="rotate(-40.832 47.762 100.66)" d="m17.036 93.403-6.1681-2.3498"/><path transform="translate(2.6435 21.515)" d="m17.036 93.403-6.1681-2.3498"/><path transform="rotate(-19.266 82.607 96.345)" d="m17.036 93.403-6.1681-2.3498"/></g></g></g></svg>