<?xml version='1.0' encoding='utf-8'?>
<svg xmlns:xlink="http://www.w3.org/1999/xlink" xmlns="http://www.w3.org/2000/svg" width="161.67mm" height="83.638mm" version="1.1" viewBox="0 0 161.67 83.638"><defs><pattern id="b" x="7" y="-8" xlink:href="#a" patternTransform="matrix(0 -.5 .5 0 198.89 1381)" preserveAspectRatio="xMidYMid"/><pattern id="a" width="523.21338" height="23.055199" fill="#7e7e7e" patternTransform="translate(199.21 1369.1)" patternUnits="userSpaceOnUse" preserveAspectRatio="xMidYMid"><path transform="matrix(.34459 0 0 .34459 -622.51 259.66)" d="m1806.5-757.91v18.157c1.9978 4e-3 4.0219-1.6241 6.072-1.6221 2.0502-1.6286 4.1263 3e-3 6.228 4e-3 2.1012 4.7e-4 4.228-0.22888 6.3801-0.2299 2.152-0.23009 4.3292 3.713 6.5313 3.7105 2.2045 3.7133 4.4338-0.42019 6.6877-0.42442 2.2522-0.4186 4.5289 0.0253 6.8297 0.0194 2.3012 0.0287 4.6266-0.96193 6.9759-0.96954 2.348-0.95683 4.7198-0.0481 7.1151-0.0572 2.3964-0.0412 4.8162 0.45767 7.2592 0.44695 2.4439 0.46608 4.9109 1.7389 7.4008 1.7266 2.4923 1.7488 5.0076-0.58165 7.5454-0.59568 2.5336-0.57018 5.0897 0.28135 7.668 0.26572 2.58 0.29453 5.1821 0.34727 7.806 0.32999 2.6241 0.3621 5.27 0.51582 7.9374 0.49687 2.668 0.53229 5.3574-0.58157 8.0679-0.60221 2.7077-0.56343 5.4364 0.0843 8.1859 0.0621 2.7513 0.1041 5.5233 0.56804 8.3157 0.54421 2.7938 0.58948 5.6081-1.2574 8.4425-1.2829 2.8288-1.2344 5.6776-1.0541 8.5461-1.081 2.8689-1.0294 5.7575-3.0735 8.6654-3.1017 2.9012-3.0472 5.8216 3.146 8.761 3.1169 2.9599 3.1735 5.939-1.3952 8.9369-1.4259 2.9825-1.3664 5.9837 0.8818 9.0031 0.85017 3.0274 0.91165 6.0732 1.0428 9.137 1.0099 3.0645 1.0739 6.147-1.7392 9.2472-1.7735 3.0899-1.7068 6.1974 2.6416 9.3221 2.6063 3.1414 2.675 6.3001 1.4565 9.476 1.4196 3.1716 1.4913 6.3602-0.21021 9.5654-0.24866 3.1987-0.17406 6.414 0.853 9.6456 0.81308 3.236 0.89056 6.4883 0.89041 9.7566 0.84879 3.2687 0.92957 6.5533 0.9582 9.8535 0.91484 3.3007 0.99896 6.6171 0.57627 9.9487 0.53106 3.3301 0.61874 6.6755-0.95012 10.036-0.99721 3.353-0.90576 6.7208 0.0608 10.103 0.0121 3.3871 0.10685 6.7887 0.39007 10.204 0.33955 3.4175 0.43798 6.8492-0.25579 10.295-0.30809 3.4422-0.20607 6.8983-0.20406 10.368-0.25801 3.4697-0.15265 6.953 1.8834 10.449 1.8278 3.5078 1.9364 7.0289-0.0748 10.563-0.13252 3.5235-0.0198 7.0597 0.37013 10.608 0.31072 3.5512 0.42669 7.1149-1.3737 10.691-1.435 3.5655-1.315 7.1432-3.5129 10.732-3.5757 3.5762-3.4523 7.164 4.4474 10.763 4.3837 3.6467 4.5086 7.305 0.89342 10.975 0.82708 3.6488 0.95741 7.3087 0.21453 10.979 0.14663 3.6666 0.27961 7.3439 0.42448 11.032 0.35471 3.6892 0.49132 7.3888 0.22981 11.098 0.15801 3.7084 0.29864 7.4269 1.0123 11.155 0.93849 3.7337 1.083 7.4771 1.9446 11.23 1.8685 3.7599 2.0172 7.5292 0.34478 11.308 0.26604 3.7676 0.41998 7.5443 0.3485 11.33 0.26743 3.7856 0.42577 7.5797-0.0627 11.382-0.14638 3.7995 0.0171 7.6073-0.12468 11.423-0.21078 3.8152-0.0423 7.6383 0.47916 11.469 0.3906 3.8355 0.56392 7.6787 1.5698 11.529 1.4786 3.8599 1.657 7.7271-1.9638 11.601-2.0581 3.8448-1.8731 7.6964-0.31136 11.555-0.40727 3.8714-0.21928 7.7494-2.6818 11.634-2.7804 3.863-2.5862 7.7322-0.0578 11.607-0.15738 3.8972 0.0388 7.8004 0.69534 11.709 0.59356 3.9155 0.79453 7.8365-0.0427 11.763-0.1464 3.9198 0.0586 7.8448-0.38021 11.775-0.48551 3.9267-0.27742 7.8582-1.584 11.794-1.6908 3.9246-1.4793 7.8535 1.0065 11.787 0.89876 3.957 1.1118 7.9182-1.0062 11.883-1.1161 3.9462-0.89802 7.8962-2.8116 11.85-2.9222 3.9357-2.7023 7.8749 2.5272 11.817 2.4167 3.9929 2.6357 7.9889-1.1628 11.988-1.276 3.9638-1.0504 7.9304 1.7042 11.899 1.5912 3.9968 1.8152 7.996 0.56852 11.997 0.45333 3.9908 0.68198 7.9838-1.2457 11.978-1.3621 3.9766-1.131 7.9549 2.2117 11.935 2.0947 4.0145 2.326 8.0304 0.7204 12.047 0.60049 4.0028 0.83796 8.0067-0.26385 12.011-0.3854 3.9946-0.14506 7.9898-0.65742 11.986-0.78063 3.9911-0.53698 7.9827-1.9389 11.974-2.0637 3.9771-1.8162 7.9543-0.57846 11.931-0.70385 3.9907-0.45506 7.981-0.82341 11.971-0.95012 3.9867-0.6979 7.9728-1.7779 11.958-1.9051 3.9742-1.6512 7.9474-0.10651 11.919-0.23334 3.9896 0.0198 7.9778 0.12239 11.964-5e-3 3.9891 0.24974 7.9764-1.9719 11.962-2.0994 3.9624-1.8437 7.9227 0.81275 11.881 0.6866 3.9879 0.93895 7.9733 1.0185 11.956 0.89168 3.9853 1.1457 7.9678-0.4206 11.947-0.54776 3.964-0.29329 7.9249-2.1709 11.882-2.2976 3.9381-2.0436 7.8727 0.88245 11.804 0.75712 3.9637 1.008 7.9236 2.5832 11.879 2.4572 3.9751 2.7092 7.9459-0.47796 11.912-0.60561 3.9336-0.35072 7.8627-3.4053 11.787-3.5327 3.8911-3.278 7.7775-2e-3 11.659-0.1276 3.9181 0.12337 7.8309 2.4279 11.738 2.3022 3.9345 2.554 7.8634 0.63011 11.786 0.5029 3.9043 0.75705 7.8027 2.6562 11.695 2.5286 3.9166 2.7815 7.8268-0.39817 11.73-0.52921 3.8698-0.2699 7.733-2.3045 11.589-2.4368 3.8325-2.1749 7.6582 1.9438 11.477 1.8115 3.8689 2.0731 7.7304 1.131 11.584 0.99471 3.8461 1.2643 7.6845 0.28925 11.515 0.15022 3.821 0.42417 7.634 0.29179 11.439 0.14992 3.8053 0.42894 7.6021-0.19261 11.39-0.33788 3.7819-0.0521 7.5552-0.27752 11.319-0.42574 3.7627-0.13397 7.5164-0.16941 11.261-0.32053 3.7455-0.0227 7.4817-1.5876 11.208-1.7416 3.705-1.4369 7.4004-3.0294 11.086-3.184 3.662-2.876 7.3143 0.33614 10.956 0.18367 3.6893 0.48833 7.3682 0.70074 11.036 0.54692 3.6741 0.8553 7.3375 0.51568 10.99 0.36139 3.6505 0.66975 7.2899-0.88243 10.918-1.0375 3.6072-0.72772 7.203 1.1243 10.787 0.97004 3.6144 1.2773 7.2169-1.3119 10.807-1.469 3.5535-1.1554 7.0951-1.5158 10.624-1.6713 3.5245-1.36 7.0366-0.57402 10.536-0.72783 3.5129-0.41842 7.0131 1.795 10.5 1.6426 3.5239 1.9488 7.0344 1.6921 10.531 1.5374 3.499 1.8457 6.9843 1.1755 10.456 1.0174 3.4671 1.3289 6.9202-0.35188 10.359-0.51496 3.4145-0.19528 6.8148-0.22192 10.201-0.38837 3.3872-0.0622 6.7598 0.0126 10.118-0.15804 3.3617 0.17702 6.7085 0.17563 10.04 5.2e-4 3.3351 0.34436 6.6548 1.2811 9.9589 1.1012 3.3287 1.4529 6.6416-0.25956 9.9381-0.44826 3.2677-0.0801 6.5193-0.45499 9.7547-0.64867 3.2295-0.27069 6.4427-2.973 9.6394-3.1719 3.135-2.7784 6.2541-4.0904 9.3568-4.2838 3.0737-3.8926 6.1314-0.0479 9.1728-0.22817 3.125 0.14432 6.2328 1.4934 9.3229 1.3187 3.1218 1.6821 6.2256 0.1537 9.3112-0.018 3.0614 0.3339 6.1049 1.2693 9.1299 1.1021 3.0498 1.44 6.0809-0.0397 9.0929-0.21067 2.9884 0.12923 5.958-2.1601 8.9086-2.3323 2.9033-1.9888 5.7882-0.33103 8.6543-0.49444 2.9013-0.16048 5.7833-0.0201 8.6457-0.17913 2.869 0.14821 5.7183-0.80787 8.5476-0.96229 2.8139-0.64503 5.6079-0.10039 8.3819-0.24581 2.7871 0.0566 5.5539-0.0109 8.3-0.15004 2.7483 0.13867 5.4759 0.76318 8.1823 0.62903 2.7227 0.90435 5.424 0.10386 8.1036-0.0342 2.6697 0.23823 5.3178-1.6562 7.9441-1.7986 2.5887-1.5186 5.1561 0.99949 7.702 0.87133 2.5971 1.1433 5.1718-1.2024 7.7236-1.3372 2.5094-1.0708 4.9967 0.0258 7.4616-0.0942 2.4875 0.16351 4.9521 2.6014 7.3936 2.488 2.5138 2.7232 5.0031 1.3675 7.4674 1.1939 2.4836 1.4591 4.9419 0.16172 7.3745-0.10066 2.3917 0.30564 4.7585-0.86748 7.1001-1.1992 2.2531-0.62419 4.4828-2.5582 6.6889-2.8964 2.0995-2.225 4.1776-0.33951 6.2339-0.54237 2.188 0.0222 4.3514-1.8591 6.4898-1.994 2.1644-1.6089 4.3033 1.9342 6.4162 2.0825 2.1134 2.1529 4.2008 0.14422 6.262-0.17089 2.0164-0.30825 4.0076-0.90346 5.9733-0.90346-1.9978 0-4.0219 1.1497-6.072 1.1481-2.0506 1.1489-4.1272-1.0061-6.2294-1.0094-2.1011-1.0053-4.2278 0.1837-6.3798 0.17878-2.1526 0.18625-4.3305-0.44569-6.5333-0.4522-2.2022-0.44157-4.4292 1.1288-6.6808 1.1208-2.2536 1.1345-4.5318 1.5975-6.8342 1.5878-2.3036 1.6047-4.6315-1.2461-6.9832-1.2575-2.3473-1.2373-4.7183 1.018-7.1129 1.005-2.3985 1.0285-4.8207 0.23428-7.2661 0.21962-2.444 0.24645-4.9111 0.87603-7.4012 0.85969-2.4916 0.88985-5.006-0.56915-7.543-0.58723-2.5336-0.55365-5.0896 0.70132-7.6677 0.6816-2.5815 0.71854-5.185 0.82611-7.8104 0.80466-2.626 0.84499-5.2738 8e-3 -7.9431-0.0157-2.667 0.0281-5.3554-0.56907-8.065-0.59403-2.7076-0.5467-5.4364-1.3658-8.1858-1.3924-2.7467-1.3416-5.514 0.0531-8.3016 0.025-2.7924 0.0789-5.6051 0.84573-8.4379 0.81613-2.8357 0.87308-5.6914 0.0435-8.567 0.0123-2.8727 0.0724-5.7651 0.93483-8.6769 0.90212-2.9152 0.96519-5.8499-0.89687-8.8037-0.93124-2.9466-0.86486-5.9122 0.30969-8.8964 0.27389-2.989 0.34318-5.9967 1.0377-9.0228 1.0003-3.0292 1.0728-6.0768 0.45079-9.1424 0.41174-3.0633 0.48742-6.1446 2.3408-9.2436 2.3001-3.1077 2.3789-6.2331-1.9969-9.376-2.0396-3.1231-1.9568-6.2634-0.24542-9.4205-0.28952-3.1651-0.20389-6.3471-0.49802-9.5457-0.54383-3.1973-0.45458-6.4112-0.14363-9.6413-0.19093-3.2318-0.0986-6.4799 0.15324-9.7438 0.10443-3.2655 0.19983-6.5469-0.0222-9.8438-0.0725-3.2961 0.026-6.6077-0.56277-9.9346-0.61453-3.324-0.51314-6.6631-1.1707-10.017-1.2238-3.3506-1.1196-6.7161-7e-3 -10.096-0.0609-3.3862 0.0457-6.7869-1.1209-10.202-1.1763-3.4088-1.067-6.8317-1.3654-10.268-1.4218-3.4353-1.3105-6.8844 3.229-10.347 3.1718-3.4881 3.2845-6.9898-0.84827-10.505-0.9071-3.4923-0.79097-6.9976-0.21196-10.516-0.27154-3.5217-0.15412-7.0562 0.37768-10.603 0.31697-3.5503 0.43672-7.1131 0.74305-10.688 0.68115-3.5771 0.80323-7.1664 0.50995-10.768 0.44676-3.5998 0.5713-7.2113-1.2681-10.834-1.3326-3.6124-1.2054-7.2361 3.5458-10.871 3.4804-3.6642 3.609-7.3395-1.5886-11.026-1.6562-3.6548-1.523-7.3203-0.97519-10.996-1.0436-3.6794-0.90892-7.3691-0.14375-11.069-0.21341-3.7048-0.076-7.4197-4.6357-11.144-4.7066-3.6958-4.566-7.4011 3.7424-11.116 3.6718-3.768 3.8116-7.5454-0.10662-11.332-0.17932-3.7621-0.035-7.5331-0.87354-11.313-0.94676-3.7747-0.80169-7.558-1.454-11.35-1.5279-3.7877-1.3812-7.5836 0.14501-11.388 0.0707-3.8143 0.21841-7.6365 1.8289-11.466 1.7538-3.8411 1.9029-7.6899-0.1008-11.546-0.17707-3.8434-0.0257-7.694 1.3356-11.552 1.2586-3.8673 1.411-7.7416 1.5229-11.622 1.4446-3.8826 1.5994-7.7718-0.11629-11.667-0.19618-3.8844-0.0385-7.7749-0.64649-11.671-0.72763-3.8926-0.56748-7.7911-0.49457-11.695-0.57694-3.9049-0.41418-7.8154-0.67626-11.731-0.75984-3.9142-0.59442-7.8335 1.3789-11.758 1.2943-3.9393 1.4616-7.8834 1.8202-11.832 1.734-3.9526 1.9044-7.9096 0.77999-11.871 0.69182-3.9541 0.86561-7.9123 1.3127-11.874 1.2227-3.9667 1.3996-7.9372-0.32301-11.911-0.41543-3.9614-0.23376-7.9262 1.9317-11.894 1.8374-3.9867 2.0223-7.9766 2.3609-11.969 2.2635-3.9979 2.4542-7.9987 0.90986-12.002 0.80889-3.9922 1.0061-7.9868-3.4313-11.983-3.5356-3.957-3.3314-7.916 2.7508-11.877 2.6452-4.0168 2.8513-8.0353-1.6066-12.055-1.717-3.9796-1.5-7.9606 0.12861-11.943 0.0166-3.998 0.23616-7.997 2.4461-11.997 2.3309-4.0237 2.5565-8.0482-3.1816-12.073-3.301-3.9675-3.0657-7.9354 1.7986-11.903 1.6785-4.0187 1.9136-8.0374-1.0171-12.056-1.1417-3.989-0.89604-7.9776 1.5459-11.966 1.4196-4.0159 1.6675-8.0311 1.0731-12.045 0.9428-4.0103 1.1988-8.0197-0.39313-12.028-0.52679-3.9915-0.26413-7.9817-0.80989-11.97-0.94628-3.9829-0.67819-7.964-0.86201-11.943-1.0011-3.9775-0.72718-7.9529-0.18876-11.926-0.33034-3.9807-0.0512-7.9589-2.5053-11.934-2.6496-3.9456-2.3636-7.8884-0.10365-11.828-0.24821-3.9687 0.0379-7.9343-1.9475-11.896-2.0944-3.9382-1.8016-7.873-0.15673-11.804-0.30328-3.953-0.0117-7.9023-1.0366-11.847-1.1844-3.9336-0.88899-7.8631-0.31847-11.788-0.4659-3.9339-0.17139-7.8633 0.88313-11.788 0.73542-3.9403 1.0304-7.8756-0.10714-11.806-0.2559-3.9178 0.0414-7.8304-0.34684-11.737-0.49561-3.9038-0.19864-7.8021-1.0292-11.695-1.1782-3.8831-0.88033-7.7604 1.1107-11.632 0.96219-3.8992 1.2583-7.7922-0.72791-11.678-0.87806-3.8624-0.57769-7.7183-0.50805-11.567-0.65748-3.8515-0.35901-7.696 0.55904-11.533 0.40953-3.8517 0.70806-7.696-0.24729-11.533-0.3978-3.8262-0.097-7.6448-0.84093-11.456-0.99139-3.8022-0.69065-7.5966 1.3137-11.383 1.1637-3.8156 1.4627-7.6229-0.30283-11.421-0.45493-3.7771-0.15125-7.5456 0.30939-11.305 0.15737-3.7681 0.45993-7.5271 0.39586-11.277 0.24238-3.7515 0.54764-7.4936-0.44855-11.226-0.60363-3.7204-0.2952-7.4311 0.30323-11.132 0.14745-3.7116 0.4568-7.4131-1.3338-11.104-1.4916-3.6664-1.1773-7.3226 3.1512-10.968 2.994-3.7143 3.3048-7.4176-1.9267-11.11-2.0905-3.6155-1.765-7.2201 0.68587-10.813 0.52387-3.6331 0.84374-7.2546-1.0326-10.864-1.1988-3.5822-0.86868-7.1527 0.0477-10.711-0.11864-3.5752 0.21134-7.1382-1.8816-10.689-2.0503-3.5175-1.7136-7.0228-0.36559-10.516-0.53212-3.5162-0.19923-7.0197 0.55003-10.51 0.38322-3.5059 0.7174-6.9986-0.50279-10.478-0.67051-3.4618-0.33443-6.9102-0.34247-10.345-0.50905-3.4369-0.17547-6.8599-1.5115-10.269-1.6776-3.3882-1.3435-6.7623 0.18375-10.122 0.0213-3.3877 0.34887-6.7607-1.2828-10.119-1.4447-3.3335-1.1168-6.6523-0.54257-9.9561-0.69952-3.3154-0.38052-6.6157-4.213-9.9005-4.3662-3.2278-4.0507-6.4407 0.83288-9.6382 0.69404-3.2743 0.98586-6.5325-1.0726-9.7744-1.2054-3.216-0.92476-6.4159-1.9089-9.5994-2.0299-3.1759-1.7716-6.3355 1.0441-9.4783 0.9376-3.1773 1.1706-6.3376-0.70027-9.4804-0.79754-3.1246-0.58697-6.232 0.26578-9.3218 0.18025-3.0991 0.36768-6.1805-4.5377-9.2439-4.6143-3.0342-4.4467-6.0508 1.3466-9.0493 1.2937-3.0383 1.4328-6.0581 0.52364-9.0591 0.48636-2.9932 0.58519-5.9676-0.81584-8.923-0.84051-2.9528-0.77263-5.8866 2.3375-8.8009 2.3275-2.914 2.3691-5.8085 0.34206-8.6833 0.33414-2.8723 0.35298-5.7248-0.83618-8.5573-0.84414-2.832-0.82826-5.644 0.83202-8.4356 0.82886-2.7919 0.84224-5.5635 0.22631-8.3142 0.22192-2.7506 0.2289-5.4805-0.0158-8.1892-0.023-2.7087-0.0127-5.3962 0.14927-8.0623 0.13983-2.6664 0.15535-5.3114 0.0173-7.9345 4e-3 -2.6231 0.0252-5.2243-1.1175-7.8034-1.1336-2.5779-1.106-5.1336 0.69195-7.6668 0.68712-2.5348 0.71331-5.0471-0.80506-7.5365-0.81116-2.4898-0.80078-4.9568-1.9549-7.4006-1.9476-2.4648-1.9427-4.906 0.67223-7.3232 0.73381-2.3946 0.68796-4.7657 1.1928-7.1129 1.2763-2.3318 1.1404-4.6401 1.7781-6.9245 1.8382-2.3035 1.6852-4.5827 1.2914-6.8374 1.257-2.3044 1.1911-4.5831 0.0442-6.8357-0.13603-2.214 0.0294-4.4028-0.81862-6.566-1.0805-2.1027-0.65463-4.1812 3.3064-6.2353 3.1118-2.3672 3.5671-4.702-1.6385-7.0038-2.804-1.7647-0.89349-3.51-2.2544-5.2357-2.2544v7.8207zm-30.367 33.453v18.157c1.9978 4e-3 4.0219-1.6241 6.072-1.6221 2.0501-1.6286 4.1263 3e-3 6.228 4e-3 2.1012 4.7e-4 4.228-0.22888 6.38-0.2299 2.152-0.23008 4.3293 3.713 6.5314 3.7105 2.2044 3.7133 4.4338-0.4202 6.6877-0.42443 2.2522-0.4186 4.5288 0.0253 6.8297 0.0194 2.3012 0.0287 4.6266-0.96193 6.9758-0.96954 2.348-0.95683 4.7199-0.048 7.1152-0.0572 2.3964-0.0412 4.8162 0.45767 7.2592 0.44695 2.4439 0.46608 4.9109 1.7389 7.4008 1.7266 2.4923 1.7488 5.0076-0.58166 7.5453-0.59569 2.5337-0.57018 5.0898 0.28136 7.6681 0.26572 2.5799 0.29454 5.182 0.34728 7.8059 0.32999 2.6242 0.3621 5.2701 0.51582 7.9375 0.49688 2.6679 0.53228 5.3573-0.58157 8.0679-0.60221 2.7076-0.56344 5.4364 0.0843 8.1859 0.0621 2.7512 0.10411 5.5232 0.56804 8.3156 0.54422 2.7939 0.58947 5.6082-1.2575 8.4426-1.2829 2.8288-1.2344 5.6776-1.0541 8.5461-1.081 2.8689-1.0294 5.7575-3.0735 8.6654-3.1017 2.9012-3.0472 5.8216 3.146 8.7609 3.1169 2.96 3.1735 5.939-1.3952 8.9369-1.4259 2.9826-1.3664 5.9838 0.8818 9.0032 0.85018 3.0274 0.91165 6.0732 1.0428 9.1369 1.0099 3.0645 1.0739 6.1471-1.7392 9.2473-1.7735 3.0899-1.7068 6.1974 2.6416 9.3221 2.6063 3.1414 2.675 6.3001 1.4565 9.4759 1.4196 3.1716 1.4913 6.3602-0.21021 9.5655-0.24866 3.1987-0.17406 6.414 0.853 9.6456 0.81308 3.236 0.89057 6.4883 0.89041 9.7566 0.84879 3.2686 0.92957 6.5532 0.95821 9.8534 0.91484 3.3008 0.99896 6.6172 0.57627 9.9488 0.53106 3.3301 0.61874 6.6755-0.95011 10.036-0.99721 3.353-0.90576 6.7208 0.0608 10.103 0.012 3.3871 0.10685 6.7887 0.39007 10.204 0.33955 3.4175 0.43798 6.8492-0.25579 10.295-0.30809 3.4423-0.20606 6.8984-0.20406 10.368-0.25801 3.4697-0.15265 6.953 1.8834 10.449 1.8278 3.5078 1.9364 7.0289-0.0748 10.563-0.13252 3.5235-0.0198 7.0597 0.37013 10.608 0.31072 3.5512 0.4267 7.1149-1.3737 10.691-1.435 3.5655-1.315 7.1431-3.5129 10.732-3.5757 3.5762-3.4523 7.164 4.4474 10.763 4.3837 3.6468 4.5086 7.3051 0.89343 10.975 0.82708 3.6488 0.95741 7.3087 0.21453 10.979 0.14663 3.6666 0.27961 7.3439 0.42449 11.032 0.35471 3.6892 0.49133 7.3887 0.22981 11.098 0.15801 3.7085 0.29864 7.427 1.0123 11.155 0.9385 3.7337 1.083 7.4771 1.9445 11.23 1.8685 3.76 2.0172 7.5293 0.34479 11.308 0.26604 3.7677 0.41998 7.5444 0.3485 11.33 0.26743 3.7855 0.42577 7.5797-0.0627 11.382-0.14638 3.7995 0.0171 7.6073-0.12468 11.423-0.21078 3.8152-0.0423 7.6383 0.47916 11.469 0.3906 3.8356 0.56393 7.6788 1.5698 11.529 1.4786 3.8599 1.657 7.7271-1.9638 11.601-2.0581 3.8448-1.8731 7.6964-0.31136 11.555-0.40727 3.8714-0.21929 7.7494-2.6818 11.634-2.7804 3.863-2.5862 7.7322-0.0578 11.607-0.15737 3.8972 0.0388 7.8003 0.69533 11.709 0.59356 3.9155 0.79453 7.8365-0.0427 11.763-0.1464 3.9198 0.0586 7.8448-0.38022 11.775-0.48551 3.9267-0.27743 7.8581-1.584 11.794-1.6909 3.9245-1.4793 7.8535 1.0065 11.787 0.89877 3.957 1.1118 7.9182-1.0062 11.883-1.1161 3.9462-0.89802 7.8962-2.8116 11.85-2.9222 3.9357-2.7023 7.8749 2.5272 11.817 2.4167 3.9929 2.6357 7.9888-1.1628 11.988-1.276 3.9639-1.0504 7.9305 1.7042 11.9 1.5912 3.9968 1.8152 7.996 0.56852 11.997 0.45333 3.9908 0.68199 7.9838-1.2457 11.978-1.3621 3.9766-1.131 7.9549 2.2117 11.935 2.0947 4.0145 2.326 8.0304 0.72039 12.047 0.60048 4.0028 0.83797 8.0067-0.26384 12.011-0.3854 3.9945-0.14506 7.9898-0.65742 11.985-0.78063 3.9912-0.53698 7.9828-1.9389 11.974-2.0637 3.9771-1.8162 7.9543-0.57846 11.931-0.70385 3.9907-0.45506 7.9811-0.82341 11.971-0.95011 3.9868-0.69791 4.964-1.6741 8.9491-1.8014 3.9742-1.6512 7.9474-0.10651 11.919-0.23334 3.9897 0.0198 16.174-0.29261 20.161-0.42 3.9891 0.24973 7.9764-1.9719 11.962-2.0994 3.9625-1.8437 7.9228 0.81275 11.881 0.68661 3.9879 0.93894 7.9733 1.0185 11.956 0.89167 3.9853 1.1457 7.9678-0.4206 11.947-0.54776 3.964-0.29329 2.7373-1.8596 6.6947-1.9864 3.9381-2.0436 7.8727 0.88245 11.804 0.75712 3.9637 1.008 7.9236 2.5833 11.879 2.4572 3.9751 2.7092 7.9459-0.47795 11.912-0.6056 3.9336-0.35072 7.8627-3.4053 11.787-3.5327 3.8911-3.278 7.7775-2e-3 11.659-0.1276 3.9181 0.12336 7.8309 2.4279 11.738 2.3022 3.9346 2.554 7.8635 0.63011 11.786 0.5029 3.9043 0.75706 7.8026 2.6562 11.695 2.5286 3.9166 2.7815 7.8267-0.39817 11.73-0.52922 3.8698-0.2699 7.733-2.3045 11.589-2.4368 3.8325-2.1749 7.6582 1.9438 11.477 1.8115 3.8689 2.0731 7.7304 1.131 11.584 0.99471 3.8461 1.2643 7.6845 0.28925 11.515 0.15022 3.821 0.42417 7.634 0.2918 11.439 0.14992 3.8053 0.42894 7.6021-0.19261 11.39-0.33787 3.7819-0.0521 7.5551-0.27753 11.319-0.42574 3.7628-0.13398 7.5165-0.16942 11.261-0.32054 3.7456-0.0227 7.4818-1.5876 11.208-1.7416 3.705-1.4369 7.4003-3.0294 11.086-3.184 3.662-2.876 7.3142 0.33615 10.956 0.18367 3.6893 0.48833 7.3682 0.70074 11.036 0.54693 3.6741 0.85529 7.3374 0.51567 10.99 0.36138 3.6505 0.66975 7.2899-0.88243 10.918-1.0375 3.6073-0.72772 7.2031 1.1244 10.787 0.97004 3.6143 1.2773 7.2168-1.3119 10.807-1.469 3.5535-1.1554 7.0951-1.5158 10.624-1.6713 3.5244-1.36 7.0366-0.57403 10.536-0.72783 3.5129-0.41843 7.0131 1.795 10.5 1.6426 3.524 1.9488 7.0345 1.6921 10.531 1.5374 3.499 1.8457 6.9843 1.1755 10.456 1.0174 3.4671 1.3289 6.9201-0.35187 10.359-0.51496 3.4145-0.19527 6.8148-0.22191 10.201-0.38837 3.3872-0.0621 6.7598 0.0126 10.118-0.15803 3.3618 0.17702 6.7086 0.17563 10.04 5.2e-4 3.3351 0.34435 6.6548 1.2811 9.9589 1.1012 3.3287 1.4529 6.6415-0.25956 9.9381-0.44826 3.2677-0.0801 4.7586-4.5633 7.994-4.757 3.2295-0.2707 8.2034 1.1353 11.4 0.93647 3.1351-2.7784 6.2542-4.0904 9.3569-4.2838 3.0737-3.8926 6.1314-0.0479 9.1728-0.22817 3.125 0.14432 7.4065 4.4279 10.497 4.2532 3.1218 1.6821 6.2256 0.15369 9.3111-0.018 3.0615 0.33389 6.105 1.2693 9.13 1.1021 3.0498 1.44 6.0808-0.0397 9.0929-0.21067 2.9884 0.12923 5.958-2.1601 8.9086-2.3323 2.9033-1.9888 5.7882-0.33103 8.6543-0.49444 2.9013-0.16048 4.6095-2.9546 7.4719-3.1137 2.869 0.14821 5.7183-0.80787 8.5476-0.96229 2.8139-0.64503 5.6079-0.10039 8.3818-0.24581 2.7872 0.0566 5.554-0.0109 8.3001-0.15004 2.7483 0.13867 5.4759 0.76319 8.1823 0.62903 2.7227 0.90435 5.424 0.10386 8.1036-0.0341 2.6697 0.23823 5.3178-1.6563 7.9441-1.7986 2.5887-1.5186 5.1561 0.99949 7.702 0.87133 2.5971 1.1433 5.1717-1.2024 7.7236-1.3372 2.5094-1.0708 4.9967 0.0258 7.4616-0.0942 2.4874 0.16352 4.9521 2.6014 7.3936 2.488 2.5138 2.7232 5.003 1.3675 7.4674 1.1939 2.4836 1.4591 4.9419 0.16172 7.3745-0.10066 2.3917 0.30564 4.7585-0.86748 7.1001-1.1992 2.2531-0.62419 4.4828-2.5581 6.6889-2.8964 2.0995-2.225 4.1775-0.33951 6.2339-0.54237 2.188 0.0222 4.3514-1.8591 6.4898-1.994 2.1644-1.6089 6.3782-1.0227 8.4912-0.87446 2.1134 2.1529 9.6996 0.55923 11.761 0.24411 2.0163-0.30825 10.813 1.9319 12.779 1.9319-1.9978 0-16.494-0.53763-18.544-0.53925-2.0506 1.1489-6.0346 0.38784-8.1369 0.38451-2.1011-1.0053-4.2278 0.1837-6.3797 0.17879-2.1526 0.18624-3.9155 2.2518-6.1183 2.2453-2.2022-0.44156-4.8442-1.5687-7.0958-1.5768-2.2536 1.1345-4.5318 1.5975-6.8342 1.5878-2.3036 1.6047-4.6315-1.2461-6.9833-1.2575-2.3472-1.2373-4.7182 1.018-7.1128 1.005-2.3986 1.0285-4.8207 0.23429-7.2661 0.21962-2.444 0.24645-4.9112 0.87603-7.4012 0.85969-2.4916 0.88985-5.006-0.56914-7.543-0.58723-2.5336-0.55365-5.0896 0.70132-7.6678 0.68161-2.5814 0.71853-5.1849 0.8261-7.8104 0.80465-2.6259 0.845-5.2737 8e-3 -7.943-0.0157-2.667 0.0282-5.3554-0.56907-8.065-0.59403-2.7076-0.5467-5.4364-1.3658-8.1858-1.3924-2.7467-1.3416-5.514 0.0531-8.3017 0.025-2.7923 0.0789-5.605 0.84573-8.4378 0.81613-2.8357 0.87308-5.6914 0.0435-8.567 0.0123-2.8727 0.0724-4.5913 3.8694-7.5031 3.8367-2.9153 0.96518-5.8499-0.89688-8.8037-0.93125-2.9466-0.86486-5.9122 0.30969-8.8964 0.2739-2.989 0.34318-5.9967 1.0377-9.0228 1.0003-3.0292 1.0728-6.0768 0.45078-9.1424 0.41174-3.0633 0.48741-6.1446 2.3408-9.2436 2.3001-3.1077 2.3788-7.407-4.9315-10.55-4.9742-3.1231-1.9568-6.2634-0.24542-9.4205-0.28952-3.1651-0.20388-6.3471-0.49802-9.5457-0.54383-3.1973-0.45458-6.4112-0.14362-9.6413-0.19093-3.2318-0.0986-6.4799 0.15324-9.7439 0.10443-3.2654 0.19983-6.5468-0.0222-9.8438-0.0725-3.296 0.026-6.6077-0.56276-9.9345-0.61452-3.324-0.51314-6.6632-1.1707-10.017-1.2238-3.3507-1.1196-6.7162-7e-3 -10.096-0.0609-3.3862 0.0457-6.7869-1.1209-10.202-1.1763-3.4088-1.067-6.8317-1.3654-10.268-1.4218-3.4353-1.3105-6.8844 3.229-10.347 3.1718-3.488 3.2845-6.9897-0.84827-10.505-0.9071-3.4923-0.79097-6.9976-0.21196-10.516-0.27154-3.5217-0.15411-7.0562 0.37769-10.603 0.31697-3.5503 0.43673-7.1131 0.74306-10.688 0.68115-3.5772 0.80323-7.1664 0.50995-10.768 0.44676-3.5998 0.5713-7.2114-1.2681-10.834-1.3326-3.6123-1.2054-7.236 3.5458-10.871 3.4804-3.6642 3.609-7.3395-1.5886-11.026-1.6562-3.6548-1.523-7.3203-0.97518-10.996-1.0436-3.6794-0.90891-7.3691-0.14375-11.069-0.21341-3.7049-0.076-7.4197-4.6357-11.144-4.7066-3.6958-4.566-7.4011 3.7424-11.116 3.6718-3.768 3.8116-7.5455-0.10662-11.332-0.17932-3.7621-0.035-7.5331-0.87354-11.313-0.94675-3.7747-0.8017-7.558-1.454-11.35-1.5279-3.7877-1.3812-7.5836 0.14502-11.388 0.0707-3.8143 0.2184-7.6366 1.8289-11.466 1.7537-3.8411 1.9029-7.6899-0.1008-11.546-0.17707-3.8434-0.0257-7.6941 1.3356-11.552 1.2586-3.8674 1.411-7.7416 1.5229-11.622 1.4446-3.8826 1.5994-7.7718-0.1163-11.667-0.19619-3.8844-0.0385-7.775-0.64649-11.671-0.72763-3.8926-0.56748-7.7911-0.49457-11.695-0.57694-3.9049-0.41418-7.8154-0.67626-11.731-0.75984-3.9142-0.59441-7.8335 1.3789-11.758 1.2943-3.9393 1.4616-7.8834 1.8202-11.832 1.734-3.9526 1.9044-7.9096 0.77999-11.871 0.69183-3.954 0.86561-7.9122 1.3127-11.874 1.2227-3.9667 1.3996-7.9372-0.32302-11.911-0.41544-3.9614-0.23376-2.7387 1.6204-6.7066 1.5261-3.9867 2.0223-7.9766 2.3609-11.969 2.2635-3.9979 2.4542-7.9987 0.90986-12.002 0.80889-3.9922 1.0061-6.3156-2.112-10.312-2.2163-3.957-3.3314-14.775 1.7428-18.736 1.6372-4.0167 2.8513-11.044-1.5029-15.064-1.6133-3.9796-1.5-7.9606 0.12861-11.943 0.0166-3.998 0.23616-4.9882 2.3423-8.9879 2.2271-4.0237 2.5565-8.0482-3.1816-12.073-3.301-3.9675-3.0657-7.9354 1.7986-11.903 1.6785-4.0187 1.9136-8.0374-1.0171-12.056-1.1417-3.989-0.89603-7.9776 1.5459-11.966 1.4196-4.0159 1.6675-8.0311 1.0731-12.045 0.9428-4.0104 1.1988-8.0197-0.39313-12.028-0.52679-3.9916-0.26412-7.9817-0.80989-11.97-0.94628-3.9828-0.67818-7.9639-0.86201-11.943-1.0011-3.9775-0.72718-7.9529-0.18875-11.926-0.33033-3.9807-0.0512-7.9589-2.5053-11.934-2.6496-3.9455-2.3636-7.8883-0.10365-11.828-0.2482-3.9688 0.0378-7.9343-1.9475-11.896-2.0944-3.9382-1.8016-7.873-0.15673-11.804-0.30328-3.9531-0.0117-7.9023-1.0366-11.847-1.1844-3.9336-0.88898-7.8631-0.31847-11.788-0.4659-3.9339-0.17139-7.8633 0.88313-11.788 0.73543-3.9402 1.0304-7.8755-0.10715-11.806-0.25591-3.9178 0.0414-7.8304-0.34684-11.737-0.49561-3.9038-0.19864-7.8021-1.0292-11.695-1.1782-3.8831-0.88033-7.7605 1.1107-11.632 0.96219-3.8992 1.2583-7.7922-0.72791-11.678-0.87805-3.8624-0.5777-7.7183-0.50806-11.567-0.65749-3.8515-0.35901-7.6961 0.55905-11.533 0.40954-3.8517 0.70805-7.696-0.24729-11.533-0.3978-3.8262-0.097-7.6448-0.84094-11.455-0.99139-3.8023-0.69066-7.5966 1.3137-11.383 1.1637-3.8157 1.4627-7.6229-0.30283-11.422-0.45493-3.7771-0.15124-7.5455 0.30939-11.305 0.15737-3.7681 0.45994-7.5271 0.39587-11.277 0.24238-3.7515 0.54765-7.4936-0.44855-11.226-0.60362-3.7204-0.29521-7.4311 0.30322-11.132 0.14745-3.7116 0.45679-7.4132-1.3339-11.104-1.4917-3.6665-1.1773-7.3226 3.1512-10.968 2.994-3.7143 3.3048-7.4176-1.9267-11.11-2.0905-3.6155-1.765-7.2201 0.68588-10.813 0.52387-3.6331 0.84374-7.2546-1.0326-10.864-1.1988-3.5822-0.86868-7.1527 0.0477-10.711-0.11863-3.5752 0.21133-7.1383-1.8816-10.689-2.0503-3.5176-1.7136-7.0229-0.3656-10.516-0.53213-3.5163-0.19923-7.0197 0.55003-10.51 0.38323-3.5059 0.71739-6.9986-0.5028-10.478-0.67052-3.4618-0.33443-6.9102-0.34247-10.345-0.50905-3.4368-0.17547-6.8598-1.5115-10.269-1.6776-3.3881-1.3435-6.7622 0.18375-10.122 0.0213-3.3876 0.34887-6.7607-1.2828-10.119-1.4447-3.3335-1.1168-6.6524-0.54257-9.9561-0.69951-3.3155-0.38052-6.6157-4.213-9.9005-4.3662-3.2278-4.0507-6.4407 0.83288-9.6382 0.69404-3.2743 0.98586-6.5325-1.0726-9.7744-1.2054-3.216-0.92476-6.416-1.9089-9.5994-2.0299-3.176-1.7716-6.3355 1.0441-9.4783 0.9376-3.1774 1.1706-6.3376-0.70027-9.4804-0.79754-3.1246-0.58697-6.232 0.26579-9.3218 0.18026-3.0991 0.36767-6.1805-4.5377-9.2439-4.6143-3.0342-4.4467-6.0508 1.3466-9.0493 1.2937-3.0383 1.4328-6.0581 0.52364-9.0591 0.48636-2.9932 0.58519-5.9676-0.81583-8.923-0.8405-2.9528-0.77264-5.8866 2.3375-8.8009 2.3275-2.914 2.3692-5.8085 0.34206-8.6833 0.33414-2.8723 0.35298-5.7248-0.83618-8.5573-0.84413-2.832-0.82827-5.644 0.83201-8.4356 0.82886-2.792 0.84223-5.5635 0.2263-8.3142 0.22192-2.7506 0.22889-5.4805-0.0158-8.1893-0.023-2.7086-0.0127-5.3962 0.14927-8.0623 0.13983-2.6664 0.15535-5.3113 0.0173-7.9345 4e-3 -2.623 0.0252-5.2242-1.1175-7.8033-1.1336-2.5779-1.106-5.1336 0.69195-7.6668 0.68713-2.5348 0.71331-5.0471-0.80506-7.5365-0.81117-2.4899-0.80078-4.9568-1.9549-7.4007-1.9476-2.4647-1.9427-4.9059 0.67223-7.3231 0.73381-2.3946 0.68796-4.7657 1.1928-7.1129 1.2763-2.3319 1.1404-4.6401 1.7781-6.9245 1.8382-2.3035 1.6852-4.5828 1.2914-6.8374 1.257-2.3044 1.1911-4.5831 0.0442-6.8357-0.13603-2.214 0.0294-4.4028-0.81862-6.566-1.0805-2.1027-0.65463-4.1812 3.3064-6.2353 3.1118-2.3673 3.5671-4.702-1.6385-7.0038-2.804-1.7647-0.89349-3.51-2.2544-5.2357-2.2544v7.8207zm30.367 33.453v18.157c1.9978 4e-3 4.0219-1.6241 6.072-1.6221 2.0502-1.6286 4.1263 3e-3 6.228 4e-3 2.1012 4.6e-4 4.228-0.22889 6.3801-0.22991 2.152-0.23008 4.3292 3.713 6.5313 3.7105 2.2045 3.7133 4.4338-0.42019 6.6877-0.42443 2.2522-0.4186 4.5289 0.0253 6.8297 0.0194 2.3012 0.0287 4.6266-0.96193 6.9759-0.96955 2.348-0.95683 4.7198-0.048 7.1151-0.0572 2.3964-0.0412 4.8162 0.45767 7.2592 0.44695 2.4439 0.46608 4.9109 1.7389 7.4008 1.7266 2.4923 1.7488 5.0076-0.58166 7.5454-0.59568 2.5336-0.57019 5.0897 0.28135 7.668 0.26571 2.58 0.29454 5.1821 0.34728 7.806 0.32999 2.6241 0.3621 5.27 0.51582 7.9374 0.49688 2.668 0.53229 5.3574-0.58157 8.0679-0.60221 2.7077-0.56343 5.4364 0.0843 8.1859 0.0621 2.7513 0.10411 5.5233 0.56804 8.3157 0.54422 2.7938 0.58947 5.6081-1.2574 8.4425-1.2829 2.8288-1.2344 5.6776-1.0541 8.5461-1.081 2.8689-1.0294 5.7575-3.0735 8.6654-3.1017 2.9012-3.0472 5.8216 3.146 8.761 3.1169 2.9599 3.1735 5.939-1.3952 8.9369-1.4259 2.9825-1.3664 5.9837 0.88181 9.0031 0.85018 3.0274 0.91165 6.0732 1.0428 9.137 1.0099 3.0645 1.0739 6.147-1.7392 9.2472-1.7735 3.0899-1.7068 6.1974 2.6416 9.3221 2.6063 3.1414 2.675 6.3001 1.4565 9.476 1.4196 3.1716 1.4913 6.3602-0.2102 9.5654-0.24866 3.1987-0.17406 6.414 0.85301 9.6456 0.81309 3.236 0.89056 6.4883 0.8904 9.7566 0.84879 3.2687 0.92956 6.5533 0.9582 9.8535 0.91484 3.3007 0.99896 6.6171 0.57627 9.9487 0.53105 3.3301 0.61875 6.6755-0.95011 10.036-0.99721 3.353-0.90575 6.7208 0.0608 10.103 0.0121 3.3871 0.10684 6.7887 0.39006 10.204 0.33954 3.4175 0.43798 6.8492-0.25578 10.295-0.30809 3.4422-0.20606 6.8983-0.20406 10.368-0.25801 3.4697-0.15265 6.953 1.8834 10.449 1.8278 3.5078 1.9364 7.0289-0.0748 10.563-0.13252 3.5235-0.0198 7.0597 0.37013 10.608 0.31073 3.5512 0.42669 7.1149-1.3737 10.691-1.435 3.5655-1.315 7.1432-3.5129 10.732-3.5757 3.5762-3.4523 7.164 4.4474 10.763 4.3837 3.6467 4.5086 7.305 0.89343 10.975 0.82709 3.6488 0.95741 7.3087 0.21453 10.979 0.14662 3.6666 0.27962 7.3439 0.42449 11.032 0.35471 3.6892 0.49133 7.3888 0.22981 11.098 0.15801 3.7084 0.29865 7.4269 1.0123 11.155 0.9385 3.7337 1.083 7.4771 1.9445 11.23 1.8685 3.7599 2.0172 7.5292 0.34478 11.308 0.26603 3.7676 0.41998 7.5443 0.3485 11.33 0.26744 3.7856 0.42576 7.5797-0.0627 11.382-0.14639 3.7995 0.0171 7.6073-0.12467 11.423-0.21078 3.8152-0.0423 7.6383 0.47916 11.469 0.39061 3.8355 0.56392 7.6787 1.5698 11.529 1.4786 3.8599 1.657 7.7271-1.9638 11.601-2.0581 3.8448-1.8731 7.6964-0.31136 11.555-0.40727 3.8714-0.21929 7.7494-2.6818 11.634-2.7804 3.863-2.5862 7.7322-0.0578 11.607-0.15738 3.8972 0.0388 7.8004 0.69534 11.709 0.59356 3.9155 0.79453 7.8365-0.0427 11.763-0.1464 3.9198 0.0586 7.8448-0.38021 11.775-0.48551 3.9267-0.27743 7.8582-1.584 11.794-1.6908 3.9246-1.4793 7.8535 1.0065 11.787 0.89876 3.957 1.1118 7.9182-1.0062 11.883-1.1161 3.9462-0.89802 7.8962-2.8116 11.85-2.9222 3.9357-2.7023 7.8749 2.5272 11.817 2.4167 3.9929 2.6357 7.9889-1.1628 11.988-1.276 3.9638-1.0504 7.9304 1.7042 11.899 1.5912 3.9968 1.8152 7.996 0.56853 11.997 0.45333 3.9908 0.68199 7.9838-1.2457 11.978-1.3621 3.9766-1.131 7.9549 2.2117 11.935 2.0947 4.0145 2.326 8.0304 0.7204 12.047 0.60048 4.0028 0.83797 8.0067-0.26384 12.011-0.3854 3.9946-0.14506 7.9898-0.65742 11.986-0.78063 3.9911-0.53698 7.9827-1.9389 11.974-2.0637 3.9771-1.8162 7.9543-0.57846 11.931-0.70386 3.9907-0.45506 7.981-0.82341 11.971-0.95011 3.9867-0.6979 7.9728-1.7779 11.958-1.9051 3.9742-1.6512 7.9474-0.1065 11.919-0.23334 3.9896 0.0198 7.9778 0.1224 11.964-5e-3 3.9891 0.24974 7.9764-1.9719 11.962-2.0994 3.9624-1.8437 7.9227 0.81275 11.881 0.68661 3.9879 0.93894 7.9733 1.0185 11.956 0.89167 3.9853 1.1457 7.9678-0.4206 11.947-0.54775 3.964-0.29329 7.9249-2.1709 11.882-2.2976 3.9381-2.0436 7.8727 0.88244 11.804 0.75712 3.9637 1.008 7.9236 2.5832 11.879 2.4572 3.9751 2.7092 7.9459-0.47795 11.912-0.6056 3.9336-0.35072 7.8627-3.4053 11.787-3.5327 3.8911-3.278 7.7775-2e-3 11.659-0.1276 3.9181 0.12336 7.8309 2.4279 11.738 2.3022 3.9345 2.554 7.8634 0.63012 11.786 0.5029 3.9043 0.75706 7.8027 2.6562 11.695 2.5286 3.9166 2.7815 7.8268-0.39817 11.73-0.52922 3.8698-0.2699 7.733-2.3045 11.589-2.4368 3.8325-2.1749 7.6582 1.9438 11.477 1.8115 3.8689 2.0731 7.7304 1.131 11.584 0.9947 3.8461 1.2643 7.6845 0.28926 11.515 0.15022 3.821 0.42417 7.634 0.2918 11.439 0.14993 3.8053 0.42893 7.6021-0.19261 11.39-0.33788 3.7819-0.0521 7.5552-0.27752 11.319-0.42574 3.7627-0.13397 7.5164-0.16942 11.261-0.32054 3.7455-0.0227 7.4817-1.5876 11.208-1.7416 3.705-1.4368 7.4004-3.0294 11.086-3.184 3.662-2.876 7.3143 0.33615 10.956 0.18367 3.6893 0.48834 7.3682 0.70075 11.036 0.54693 3.6741 0.85529 7.3375 0.51568 10.99 0.36138 3.6505 0.66975 7.2899-0.88243 10.918-1.0375 3.6072-0.72772 7.203 1.1244 10.787 0.97004 3.6144 1.2773 7.2169-1.3119 10.807-1.469 3.5535-1.1554 7.0951-1.5158 10.624-1.6713 3.5245-1.36 7.0366-0.57403 10.536-0.72783 3.5129-0.41843 7.0131 1.795 10.5 1.6426 3.5239 1.9488 7.0344 1.6921 10.531 1.5374 3.499 1.8457 6.9843 1.1755 10.456 1.0174 3.4671 1.3289 6.9202-0.35187 10.359-0.51496 3.4145-0.19527 6.8148-0.22191 10.201-0.38837 3.3872-0.0621 6.7598 0.0126 10.118-0.15803 3.3617 0.17702 6.7085 0.17563 10.04 5.2e-4 3.3351 0.34435 6.6548 1.2811 9.9589 1.1012 3.3287 1.4529 6.6416-0.25957 9.9381-0.44827 3.2677-0.0801 6.5193-0.45498 9.7547-0.64866 3.2295-0.27069 6.4427-2.973 9.6394-3.1719 3.135-2.7784 6.2541-4.0904 9.3568-4.2838 3.0737-3.8926 6.1314-0.0479 9.1728-0.22817 3.125 0.14432 6.2328 1.4934 9.3229 1.3187 3.1218 1.6821 6.2256 0.1537 9.3112-0.018 3.0614 0.33389 6.1049 1.2693 9.1299 1.1021 3.0498 1.44 6.0809-0.0397 9.0929-0.21068 2.9884 0.12923 5.958-2.1601 8.9086-2.3323 2.9033-1.9888 5.7882-0.33102 8.6543-0.49444 2.9013-0.16048 5.7833-0.0201 8.6457-0.17913 2.869 0.14821 5.7183-0.80787 8.5476-0.96228 2.8139-0.64503 5.6079-0.10039 8.3819-0.24582 2.7871 0.0566 5.5539-0.0109 8.3-0.15004 2.7483 0.13868 5.4759 0.76319 8.1823 0.62904 2.7227 0.90435 5.424 0.10385 8.1036-0.0342 2.6697 0.23823 5.3178-1.6563 7.9441-1.7986 2.5887-1.5186 5.1561 0.9995 7.702 0.87133 2.5971 1.1433 5.1718-1.2024 7.7236-1.3372 2.5094-1.0708 4.9967 0.0258 7.4616-0.0941 2.4875 0.16351 4.9521 2.6014 7.3936 2.488 2.5138 2.7232 5.0031 1.3675 7.4674 1.1939 2.4836 1.4591 4.9419 0.16173 7.3745-0.10065 2.3917 0.30563 4.7585-0.86748 7.1001-1.1992 2.2531-0.62419 4.4828-2.5581 6.6889-2.8964 2.0995-2.225 4.1776-0.3395 6.2339-0.54236 2.188 0.0222 4.3514-1.8591 6.4898-1.994 2.1644-1.6089 4.5234 0.28357 6.6363 0.43178 2.3702 0.48386 4.4759 0.76781 6.5371 0.4527 2.0164-0.30825 3.5124 0.12362 5.4781 0.12362-1.9978 0-4.0219 1.1497-6.072 1.1481-2.0506 1.1489-4.1272-1.0061-6.2294-1.0094-2.1011-1.0053-4.2278 0.18371-6.3798 0.17879-2.1526 0.18624-4.3305-0.4457-6.5333-0.45221-2.2022-0.44156-4.4292 1.1288-6.6808 1.1208-2.2536 1.1345-4.5318 1.5975-6.8342 1.5878-2.3036 1.6047-4.6315-1.2461-6.9832-1.2575-2.3473-1.2373-4.7183 1.018-7.1129 1.005-2.3985 1.0285-4.8207 0.23428-7.2661 0.21961-2.444 0.24645-4.9111 0.87603-7.4012 0.8597-2.4916 0.88984-5.006-0.56915-7.543-0.58724-2.5336-0.55364-5.0896 0.70133-7.6677 0.68161-2.5815 0.71854-5.185 0.82611-7.8104 0.80465-2.626 0.845-5.2738 8e-3 -7.9431-0.0157-2.667 0.0282-5.3554-0.56906-8.065-0.59402-2.7076-0.54671-5.4364-1.3658-8.1858-1.3924-2.7467-1.3416-5.514 0.0531-8.3016 0.025-2.7924 0.0789-5.6051 0.84573-8.4379 0.81613-2.8357 0.87308-5.6914 0.0435-8.567 0.0123-2.8727 0.0724-5.7651 0.93483-8.6769 0.90213-2.9152 0.96518-5.8499-0.89687-8.8037-0.93125-2.9466-0.86486-5.9122 0.30969-8.8964 0.2739-2.989 0.34318-5.9967 1.0377-9.0228 1.0003-3.0292 1.0728-6.0768 0.45078-9.1424 0.41174-3.0633 0.48742-6.1446 2.3408-9.2436 2.3001-3.1077 2.3789-6.2331-1.9969-9.376-2.0397-3.1231-1.9568-6.2634-0.24541-9.4205-0.28952-3.1651-0.20388-6.3471-0.49802-9.5457-0.54383-3.1973-0.45458-6.4112-0.14362-9.6413-0.19093-3.2318-0.0986-6.4799 0.15325-9.7438 0.10444-3.2655 0.19982-6.5469-0.0222-9.8438-0.0725-3.2961 0.026-6.6077-0.56276-9.9346-0.61452-3.324-0.51314-6.6631-1.1707-10.017-1.2238-3.3506-1.1196-6.7161-7e-3 -10.096-0.0609-3.3862 0.0457-6.7869-1.1209-10.202-1.1763-3.4088-1.067-6.8317-1.3654-10.268-1.4218-3.4353-1.3105-6.8844 3.2289-10.347 3.1718-3.4881 3.2845-6.9898-0.84827-10.505-0.90711-3.4923-0.79097-6.9976-0.21196-10.516-0.27153-3.5217-0.15412-7.0562 0.37768-10.603 0.31696-3.5503 0.43673-7.1131 0.74306-10.688 0.68115-3.5771 0.80323-7.1664 0.50995-10.768 0.44677-3.5998 0.57129-7.2113-1.2681-10.834-1.3326-3.6124-1.2054-7.2361 3.5458-10.871 3.4804-3.6642 3.609-7.3395-1.5886-11.026-1.6562-3.6548-1.523-7.3203-0.97519-10.996-1.0436-3.6794-0.90891-7.3691-0.14375-11.069-0.2134-3.7048-0.076-7.4197-4.6357-11.144-4.7066-3.6958-4.566-7.4011 3.7424-11.116 3.6718-3.768 3.8116-7.5454-0.10662-11.332-0.17932-3.7621-0.035-7.5331-0.87354-11.313-0.94675-3.7747-0.80169-7.558-1.454-11.35-1.5279-3.7877-1.3812-7.5836 0.14502-11.388 0.0707-3.8143 0.2184-7.6365 1.8289-11.466 1.7537-3.8411 1.9029-7.6899-0.10079-11.546-0.17707-3.8434-0.0257-7.694 1.3356-11.552 1.2586-3.8673 1.411-7.7416 1.5229-11.622 1.4446-3.8826 1.5994-7.7718-0.1163-11.667-0.19619-3.8844-0.0385-7.7749-0.64649-11.671-0.72762-3.8926-0.56748-7.7911-0.49458-11.695-0.57695-3.9049-0.41418-7.8154-0.67625-11.731-0.75984-3.9142-0.59441-7.8335 1.3789-11.758 1.2943-3.9393 1.4616-7.8834 1.8202-11.832 1.734-3.9526 1.9044-7.9096 0.77999-11.871 0.69183-3.9541 0.86561-7.9123 1.3127-11.874 1.2227-3.9667 1.3996-7.9372-0.32302-11.911-0.41544-3.9614-0.23376-7.9262 1.9317-11.894 1.8374-3.9867 2.0223-7.9766 2.3609-11.969 2.2635-3.9979 2.4542-7.9987 0.90986-12.002 0.8089-3.9922 1.0061-7.9868-3.4313-11.983-3.5356-3.957-3.3314-7.916 2.7508-11.877 2.6452-4.0168 2.8513-8.0353-1.6066-12.055-1.717-3.9796-1.5-7.9606 0.12861-11.943 0.0166-3.998 0.23616-7.997 2.4461-11.997 2.3309-4.0237 2.5565-8.0482-3.1816-12.073-3.301-3.9675-3.0657-7.9354 1.7986-11.903 1.6785-4.0187 1.9136-8.0374-1.0171-12.056-1.1417-3.989-0.89603-7.9776 1.5459-11.966 1.4197-4.0159 1.6675-8.0311 1.0731-12.045 0.94279-4.0103 1.1988-8.0197-0.39312-12.028-0.52678-3.9915-0.26413-7.9817-0.8099-11.97-0.94628-3.9829-0.67819-7.964-0.86202-11.943-1.0011-3.9775-0.72718-7.9529-0.18875-11.926-0.33033-3.9807-0.0512-7.9589-2.5053-11.934-2.6496-3.9456-2.3636-7.8884-0.10365-11.828-0.24821-3.9687 0.0378-7.9343-1.9475-11.896-2.0944-3.9382-1.8016-7.873-0.15673-11.804-0.30328-3.953-0.0117-7.9023-1.0366-11.847-1.1844-3.9336-0.88899-7.8631-0.31848-11.788-0.46591-3.9339-0.17139-7.8633 0.88313-11.788 0.73543-3.9403 1.0304-7.8756-0.10715-11.806-0.25591-3.9178 0.0414-7.8304-0.34684-11.737-0.49561-3.9038-0.19863-7.8021-1.0292-11.695-1.1782-3.8831-0.88033-7.7604 1.1107-11.632 0.96219-3.8992 1.2583-7.7922-0.72791-11.678-0.87805-3.8624-0.57769-7.7183-0.50805-11.567-0.65749-3.8515-0.359-7.696 0.55905-11.533 0.40954-3.8517 0.70805-7.696-0.24729-11.533-0.3978-3.8262-0.097-7.6448-0.84094-11.456-0.99139-3.8022-0.69066-7.5966 1.3137-11.383 1.1637-3.8156 1.4627-7.6229-0.30283-11.421-0.45493-3.7771-0.15124-7.5456 0.30939-11.305 0.15737-3.7681 0.45994-7.5271 0.39587-11.277 0.24239-3.7515 0.54764-7.4936-0.44855-11.226-0.60363-3.7204-0.29521-7.4311 0.30323-11.132 0.14745-3.7116 0.4568-7.4131-1.3338-11.104-1.4916-3.6664-1.1773-7.3226 3.1512-10.968 2.994-3.7143 3.3048-7.4176-1.9267-11.11-2.0905-3.6155-1.765-7.2201 0.68588-10.813 0.52387-3.6331 0.84374-7.2546-1.0326-10.864-1.1988-3.5822-0.86867-7.1527 0.0477-10.711-0.11863-3.5752 0.21133-7.1382-1.8816-10.689-2.0503-3.5175-1.7136-7.0228-0.3656-10.516-0.53212-3.5162-0.19924-7.0197 0.55003-10.51 0.38322-3.5059 0.7174-6.9986-0.50279-10.478-0.67052-3.4618-0.33443-6.9102-0.34247-10.345-0.50905-3.4369-0.17547-6.8599-1.5115-10.269-1.6776-3.3882-1.3435-6.7623 0.18376-10.122 0.0213-3.3877 0.34887-6.7607-1.2828-10.119-1.4447-3.3335-1.1168-6.6523-0.54257-9.9561-0.69951-3.3154-0.38052-6.6157-4.213-9.9005-4.3662-3.2278-4.0507-6.4407 0.83287-9.6382 0.69404-3.2743 0.98585-6.5325-1.0726-9.7744-1.2054-3.216-0.92476-6.4159-1.9089-9.5994-2.0299-3.1759-1.7716-6.3355 1.0441-9.4783 0.93761-3.1773 1.1706-6.3376-0.70028-9.4804-0.79755-3.1246-0.58697-6.232 0.26579-9.3218 0.18026-3.0991 0.36767-6.1805-4.5377-9.2439-4.6143-3.0342-4.4467-6.0508 1.3466-9.0493 1.2937-3.0383 1.4327-6.0581 0.52363-9.0591 0.48635-2.9932 0.5852-5.9676-0.81583-8.923-0.8405-2.9528-0.77263-5.8866 2.3375-8.8009 2.3275-2.914 2.3691-5.8085 0.34206-8.6833 0.33413-2.8723 0.35299-5.7248-0.83618-8.5573-0.84413-2.832-0.82827-5.644 0.83202-8.4356 0.82886-2.7919 0.84224-5.5635 0.2263-8.3142 0.22192-2.7506 0.22889-5.4805-0.0158-8.1892-0.023-2.7087-0.0127-5.3962 0.14927-8.0623 0.13982-2.6664 0.15536-5.3114 0.0173-7.9345 4e-3 -2.6231 0.0252-5.2243-1.1175-7.8034-1.1336-2.5779-1.106-5.1336 0.69195-7.6668 0.68713-2.5348 0.71331-5.0471-0.80506-7.5365-0.81116-2.4898-0.80078-4.9568-1.9549-7.4006-1.9476-2.4648-1.9427-4.906 0.67224-7.3232 0.73382-2.3946 0.68795-4.7657 1.1928-7.1129 1.2763-2.3318 1.1404-4.6401 1.7781-6.9245 1.8382-2.3035 1.6852-4.5827 1.2914-6.8374 1.257-2.3044 1.1911-4.5831 0.0442-6.8357-0.13602-2.214 0.0294-4.4028-0.81863-6.566-1.0805-2.1027-0.65464-4.1812 3.3064-6.2353 3.1118-2.3672 3.5671-4.702-1.6385-7.0038-2.804-1.7647-0.89349-3.51-2.2544-5.2357-2.2544v7.8207z" clip-path="url(#c)" stop-color="#000000" style="paint-order:markers fill stroke"/></pattern><clipPath id="c"><path d="m1806.5-753.52h1637.3v66.905h-1637.3z" stop-color="#000000" stroke-linecap="square" stroke-width=".1" style="paint-order:markers fill stroke"/></clipPath></defs><g transform="translate(-13.885 -78.629)"><g transform="matrix(.83682 0 0 .83901 17.521 17.947)"><g transform="translate(-1.4686 34.365)" stroke-width="1.1934"><ellipse cx="42.436" cy="106.32" rx="11.722" ry="3.022" fill="#500" stroke="#800000" stroke-linecap="square" stroke-linejoin="round" stroke-width="3.5803"/><rect x="24.966" y="65.059" width="33.484" height="43.471" ry="8.3077" fill="#800000"/><rect x="14.635" y="73.978" width="14.538" height="27.012" ry="5.7648" fill="none" stroke="#800000" stroke-linecap="square" stroke-linejoin="round" stroke-width="7.1607"/><path d="m53.494 66.555c-1e-6 1.0889-6.5981 1.7119-12.56 1.7119s-11.365-0.62308-11.365-1.7119c1e-6 -1.0889 5.6116-1.0889 11.573-1.0889s12.352-3e-6 12.352 1.0889z" fill="#280b0b" stroke-linecap="square" stroke-linejoin="round" stroke-width="7.1607"/><path d="m32.273 108.42c4.5816 0.48885 12.969 0.55889 19.275 0.11015 0 0-7.8201 1.255-10.427 1.2483-1.8378-5e-3 -8.8484-1.3585-8.8484-1.3585z" fill="#500" opacity=".51093"/><path d="m25.398 99.535c0.07343 0.29372 0.2025 3.6112-0.03672 3.7817-0.80104 0.57073-6.573 0.21687-6.315-0.0734 3.3096 0.0542 6.1501-0.65447 6.3517-3.7083z" fill="#500" opacity=".51093"/><path d="m25.299 75.149c0.07343-0.29372 0.2025-3.6112-0.03672-3.7817-0.80104-0.57073-6.573-0.21687-6.315 0.0734 3.3096-0.0542 6.1501 0.65447 6.3517 3.7083z" fill="#500" opacity=".51093"/><path d="m28.753 67.166c-2.4126 1.6112-2.973 4.5633-2.973 4.5633 4e-6 9.9565-0.18328 20.183 0 31.443 0.1899 1.0229 1.9229 2.9902 3.4536 3.8091-0.73301-0.58822-2.6481-2.3276-2.6124-3.7939 0.0041-0.16881-0.09059-21.219-0.12535-31.46-0.0049-1.4464 2.2571-4.5606 2.2571-4.5606z" fill="#500" opacity=".51093"/><path d="m32.173 70.978c4.5816 0.48885 12.969 0.55889 19.275 0.11015 0 0-7.8201 1.255-10.427 1.2483-1.8378-5e-3 -8.8484-1.3585-8.8484-1.3585z" fill="#500" opacity=".51093"/><ellipse cx="41.906" cy="68.938" rx="15.045" ry="3.8787" fill="#784421" stroke="#800000" stroke-linecap="square" stroke-linejoin="round" stroke-width="3.5803"/></g><path d="m34.524 74.093h9.7652c3.1937 0 5.7648 2.5711 5.7648 5.7648v16.374c0 3.1937-4.5877 4.8617-5.5571 1.8187-1.5387-4.8301-4.5081 0.48947-9.9729 3.9462-2.6991 1.7073-5.7648-2.5711-5.7648-5.7648v-16.374c0-3.1937 2.5711-5.7648 5.7648-5.7648z" fill="url(#b)" opacity=".45082" stroke-linecap="square" stroke-linejoin="round" stroke-width="3.5803"/></g><path d="m116.48 137.12s-19.27-23.015-12.14-33.033c4.8126-6.762 14.745-1.2498 19.139-3.9033 29.79-17.99 43.891 22.865 31.207 31.341-1.249 0.91094-24.055 3.0855-38.205 5.5945z"/><path transform="matrix(2.134 -.65203 .68107 2.1684 -182.11 29.132)" d="m126.59 88.704c-0.0535-0.78575 0.2266-1.5888 0.75713-2.1709 0.53053-0.58207 1.3042-0.93518 2.0916-0.95456 0.87005-0.02142 1.7121 0.34358 2.5825 0.34535 0.92005 0.0019 1.8158-0.41611 2.475-1.058 0.65912-0.64191 1.0919-1.4936 1.3186-2.3852 0.45349-1.7833 0.11054-3.66-0.21248-5.4716-0.32301-1.8115-0.62038-3.7055-0.0829-5.4653 0.26874-0.87993 0.75283-1.7069 1.4559-2.3004s1.6344-0.93697 2.5501-0.84802c0.7348 0.07137 1.439 0.42204 1.9388 0.96542 0.49977 0.54338 0.79045 1.2744 0.80024 2.0126 0.01 0.7382-0.26137 1.4767-0.74654 2.0332-0.48518 0.55645-1.1799 0.92569-1.9125 1.0165" fill="none" stroke="#000" stroke-linecap="round" stroke-linejoin="round" stroke-width="2.6643"/><path d="m17.962 142.8 62.962 9.6851 34.838-21.196c1.3484-1.4982-40.974-6.8464-49.785-3.4815-3.9222 1.3144-48.016 14.992-48.016 14.992z" fill="#f4eed7" stroke="#000" stroke-linecap="square" stroke-linejoin="round"/><path d="m77.033 154.77 78.786 5.2341 19.239-18.651-56.982-7.1962z" fill="#decb85" stroke="#000" stroke-linecap="square" stroke-linejoin="round"/><path d="m14.539 150.31s59.766 7.8633 60.357 5.7674c0.5906-2.0959 3.7114-6.2093 3.7114-6.2093s-56.258-6.5546-56.258-6.5546z" fill="#decb85"/><path d="m16.75 143.13c-1.2426 0.1744-0.8664 4.7391-0.8664 4.7391 40.569-4.4774 52.558 0.81812 60.548 6.3153 3.3119-0.0104 4.0591-0.87365 4.041-1.7503-0.10385-5.0058-23.647-14.929-63.722-9.3041z" fill="#e7daa7" stroke="#000" stroke-linecap="square" stroke-linejoin="round"/><path d="m150.16 158.76 3.2309-2.3498c-10.865-4.7986-17.741-17.412-36.102-17.889-20.76-0.53934-28.077 7.4911-36.382 14.161-0.34572 0.63921 2.1671 1.6598 3.563 1.8492 14.412-10.587 40.842-6.9792 65.69 4.2285z" fill="#e7daa7" stroke="#000" stroke-linecap="square" stroke-linejoin="round"/><path d="m153.03 158.98c6.2548-4.2298 20.538-17.553 20.414-18.504-0.16382-1.2527-5.8831-5.7748-9.5459-7.4899-11.243-5.2645-27.779-10.474-48.134-1.6889-17.064 5.8133-25.548 14.764-35.135 21.672 11.874-12.176 47.849-20.621 72.401 6.0113z" fill="#f4eed7" stroke="#000" stroke-linecap="square" stroke-linejoin="round"/><path d="m75.486 153.98c0.58009 2.1766 5.4475 3.3036 9.1418 0.6981l71.632 5.47 18.798-18.798-0.14686 2.2029-18.211 18.211c-24.284-1.6218-47.881-2.8987-72.094-4.7339-2.9095 1.4792-6.8314 2.1444-9.8944-0.64169-20.226-1.6022-40.186-3.7608-60.173-6.0795 1.0508 0.0293-1.6306-2.2907 1.1697-1.9757 17.218 1.9369 59.777 5.6472 59.777 5.6472z" fill="#800000" stroke="#000" stroke-linecap="square" stroke-linejoin="round"/><ellipse transform="matrix(.99763 .068871 -.003019 1 0 0)" cx="80.677" cy="148.81" rx="4.6024" ry="1.8628"/><path d="m66.982 123.14c5.1741-0.22614 9.5004 2.6092 9.6632 6.3326 0.0062 0.14603 0.0031 0.28324-0.0047 0.41664l1.7435 2.7858-2.7891-0.83109c-0.52775 0.36832-1.2316 0.60034-2.067 0.74859l-1.2548 3.2118-1.0867-2.9807c-0.37835 0.0199-0.77989 0.0324-1.1807 0.0432l-1.3109 3.3562-1.1944-3.2768c-0.14823 6e-3 -0.29046 8e-3 -0.43986 0.0141-0.28021 0.0126-0.55433 0.0275-0.82622 0.0426l-1.1484 2.9396-1.0258-2.8135c-0.52986 0.0298-1.0494 0.0559-1.5251 0.0634l-1.2064 3.0892-1.189-3.2613c-1.3433-0.30206-2.158-1.0545-2.2312-2.7299-0.16275-3.7234 3.8997-6.9254 9.0738-7.1515z" stroke-linecap="square" stroke-linejoin="round" stroke-width=".5"/><path d="m124.36 124.77c-5.1741-0.22614-9.5004 2.6092-9.6632 6.3326-6e-3 0.14604-3e-3 0.28324 5e-3 0.41666l-1.7435 2.7857 2.7891-0.83107c0.52774 0.36831 1.2316 0.60032 2.067 0.74858l1.2548 3.2118 1.0867-2.9807c0.37835 0.0199 0.77989 0.0324 1.1807 0.0432l1.3109 3.3562 1.1944-3.2768c0.14823 6e-3 0.29046 8e-3 0.43987 0.0141 0.2802 0.0126 0.55432 0.0275 0.82621 0.0426l1.1484 2.9396 1.0258-2.8135c0.52986 0.0298 1.0494 0.0559 1.5251 0.0634l1.2064 3.0892 1.189-3.2613c1.3433-0.30205 2.158-1.0545 2.2312-2.7299 0.16275-3.7234-3.8997-6.9254-9.0738-7.1515z" stroke-linecap="square" stroke-linejoin="round" stroke-width=".5"/><path d="m124.61 82.709-15.921 9.9428c-5.1786-2.7308-13.712-4.6246-26.679-0.48186l-11.992-13.542c2.8617 10.839 1.974 17.727-0.56799 27.873-3.6214 13.06 4.5411 27.506 19.731 28.299 18.562 0.96867 29.727-0.52028 33.348-13.58 1.9491-7.0292 0.92972-12.977-1.761-18.696-3.3434-7.1064 0.3805-12.861 3.8418-19.815z" stroke-linecap="square" stroke-linejoin="round" stroke-width=".5"/><path d="m92.8 122.67c2.2578-2.6241 4.953-2.3038 7.37-0.0217 0.0609 0.43402 0.21005 0.88486-0.42381 1.1869-2.873-0.67404-2.4448 1.3304-2.5471 3.3741-0.44596 0.44094-0.89608 0.45115-1.3504 0.0278-0.04878-2.0034 0.40575-3.8264-2.7306-3.2714-0.32982-0.13837-0.48516-0.50563-0.3181-1.2958z" fill="#fff" stroke-linecap="square" stroke-linejoin="round" stroke-width=".5"/><g transform="matrix(1.4707 .044618 -.044618 1.4707 82.669 -19.94)" stroke-width=".67962"><g transform="rotate(-13.594 -77.289 193.84)" fill-rule="evenodd" stroke="#000" stroke-linecap="round" stroke-linejoin="round" stroke-width=".33981"><path transform="rotate(-40.832 47.762 100.66)" d="m17.036 93.403-6.1681-2.3498"/><path transform="translate(2.6435 21.515)" d="m17.036 93.403-6.1681-2.3498"/><path transform="rotate(-19.266 82.607 96.345)" d="m17.036 93.403-6.1681-2.3498"/></g></g><g transform="matrix(-1.4664 .12088 .12088 1.4664 132.79 -52.889)" fill-rule="evenodd" stroke="#000" stroke-linecap="round" stroke-linejoin="round" stroke-width=".33981"><path transform="rotate(-40.832 47.762 100.66)" d="m17.036 93.403-6.1681-2.3498"/><path transform="translate(2.6435 21.515)" d="m17.036 93.403-6.1681-2.3498"/><path transform="rotate(-19.266 82.607 96.345)" d="m17.036 93.403-6.1681-2.3498"/></g><g transform="matrix(1.3821 .041929 -.041929 1.3821 -21.19 -17.838)" stroke-width=".72322"><g transform="matrix(1.2141 0 0 1.2141 -4.9209 -30.993)" stroke-width=".59569"><ellipse transform="scale(1,-1)" cx="70.713" cy="-102.44" rx="4.9198" ry="4.6217" fill="#fff" stroke-linecap="square" stroke-linejoin="round" stroke-width=".29785"/></g></g><circle transform="rotate(1.7377)" cx="87.994" cy="110.86" r="5.3532" stroke-linecap="square" stroke-linejoin="round" stroke-width=".5"/><circle cx="81" cy="112.98" r="1.2462" fill="#fff"/><circle cx="81.081" cy="115.09" r=".65871" fill="#fff"/><g transform="translate(18.9)"><g transform="matrix(1.3821 .041929 -.041929 1.3821 -21.19 -17.838)" stroke-width=".72322"><g transform="matrix(1.2141 0 0 1.2141 -4.9209 -30.993)" stroke-width=".59569"><ellipse transform="scale(1,-1)" cx="70.713" cy="-102.44" rx="4.9198" ry="4.6217" fill="#fff" stroke-linecap="square" stroke-linejoin="round" stroke-width=".29785"/></g></g><circle transform="rotate(1.7377)" cx="87.994" cy="110.86" r="5.3532" stroke-linecap="square" stroke-linejoin="round" stroke-width=".5"/><circle cx="81" cy="112.98" r="1.2462" fill="#fff"/><circle cx="81.081" cy="115.09" r=".65871" fill="#fff"/></g><path d="m41.175 107.9c8.0642 1.3052 13.034 1.4467 22.119-0.4673 0 0-7.6064 2.2942-11.371 2.2846-3.3121-8e-3 -10.748-1.8173-10.748-1.8173z" fill="#6a0000"/></g></svg>