<?xml version='1.0' encoding='utf-8'?>
<svg xmlns="http://www.w3.org/2000/svg" width="120.39mm" height="143.35mm" version="1.1" viewBox="0 0 120.39 143.35"><defs><linearGradient id="g" x1="74.752" x2="74.899" y1="143.78" y2="162.13" gradientUnits="userSpaceOnUse"><stop stop-color="#826800" offset="0"/><stop stop-color="#d4aa00" offset=".19956"/><stop stop-color="#ffe165" offset=".46053"/><stop stop-color="#d4aa00" offset=".77412"/><stop stop-color="#826800" offset="1"/></linearGradient><linearGradient id="f" x1="73.871" x2="73.871" y1="143.78" y2="162.13" gradientTransform="translate(-5.5807 -17.917)" gradientUnits="userSpaceOnUse"><stop stop-color="#15414b" offset="0"/><stop stop-color="#277c90" stop-opacity=".99608" offset=".19956"/><stop stop-color="#339fb9" stop-opacity=".99608" offset=".46053"/><stop stop-color="#26788c" stop-opacity=".99608" offset=".77412"/><stop stop-color="#15414b" offset="1"/></linearGradient><linearGradient id="e" x1="73.871" x2="73.871" y1="143.78" y2="162.13" gradientTransform="translate(-5.5807 -17.917)" gradientUnits="userSpaceOnUse"><stop stop-color="#501616" offset="0"/><stop stop-color="#a02c2c" offset=".19956"/><stop stop-color="#d35f5f" offset=".46053"/><stop stop-color="#a02c2c" offset=".77412"/><stop stop-color="#501616" offset="1"/></linearGradient><linearGradient id="d" x1="74.752" x2="74.899" y1="143.78" y2="162.13" gradientUnits="userSpaceOnUse"><stop stop-color="#2d5016" offset="0"/><stop stop-color="#447821" offset=".19956"/><stop stop-color="#5aa02c" offset=".46053"/><stop stop-color="#447821" offset=".77412"/><stop stop-color="#2d5016" offset="1"/></linearGradient><linearGradient id="c" x1="74.752" x2="74.899" y1="143.78" y2="162.13" gradientTransform="rotate(-.11282 -28225 -3743)" gradientUnits="userSpaceOnUse"><stop stop-color="#1f1c24" offset="0"/><stop stop-color="#5d536c" offset=".19956"/><stop stop-color="#7c6f91" offset=".46053"/><stop stop-color="#5d536c" offset=".77412"/><stop stop-color="#1f1c24" offset="1"/></linearGradient><linearGradient id="b" x1="81.727" x2="81.727" y1="89.427" y2="104.88" gradientUnits="userSpaceOnUse"><stop stop-color="#c2b16d" offset="0"/><stop stop-color="#f0ecdb" stop-opacity=".99608" offset=".22368"/><stop stop-color="#f0ecdb" stop-opacity=".99608" offset=".83114"/><stop stop-color="#d6cb9c" stop-opacity=".99669" offset="1"/></linearGradient><linearGradient id="a" x1="125.82" x2="133.09" y1="193.57" y2="192.3" gradientUnits="userSpaceOnUse"><stop stop-color="#6c0000" offset="0"/><stop stop-color="#d40000" stop-opacity=".99669" offset="1"/></linearGradient></defs><g transform="translate(-35.743 -119.56)"><g transform="translate(33.966 78.66)"><g transform="translate(-19.523 22.01)" stroke="#000" stroke-linecap="square" stroke-linejoin="round"><path d="m29.666 143.92h88.998c3.3528 3.9456 2.7127 13.741 0 17.917h-88.998c-2.9459-3.0633-3.7886-13.171 0-17.917z" fill="url(#g)" stroke-width=".5"/><path d="m37.177 143.92h6.9577c-0.77133 5.6638-1.1692 11.477 0 17.917h-6.9577c-1.3707-5.9723-1.3707-11.945 0-17.917z" fill="#9d7d00" opacity=".5" stroke-width=".5"/><path d="m114.85 143.92h0.93462c1.3699 5.7224 1.117 11.742 0 17.917h-0.93462c0.77703-5.671 1.2736-11.461 0-17.917z" fill="#9d7d00" opacity=".5" stroke-width=".5"/><path d="m46.367 143.92h3.1154c-0.77188 5.9723-0.66058 12.092-0.05192 18.064h-3.0115c-0.62794-5.9723-0.93765-12.092-0.05192-18.064z" fill="#d4aa00" opacity=".5" stroke-width=".5"/><path d="m24.085 126.01h88.998c3.3528 3.9456 2.7127 13.741 0 17.917h-88.998c-2.9459-3.0633-3.7886-13.171 0-17.917z" fill="url(#f)" stroke-width=".5"/><path d="m31.596 126.01h6.9577c-0.95612 6.042-0.98212 12.013 0 17.917h-6.9577c-1.2841-5.9723-1.2065-11.945 0-17.917z" fill="#003542" opacity=".50605" stroke-width=".5"/><path d="m109.27 126.01h0.93462c1.0822 5.7361 1.6579 11.502 0 17.917h-0.93462c1.0769-5.9388 1.1321-11.979 0-17.917z" fill="#18677a" opacity=".5" stroke-width=".5"/><g transform="translate(6.9577 -17.917)"><path d="m24.085 126.01h88.998c3.3528 3.9456 2.7127 13.741 0 17.917h-88.998c-2.9459-3.0633-3.7886-13.171 0-17.917z" fill="url(#e)" stroke-width=".5"/><path d="m33.986 126.01h14.092c-1.9365 6.042-1.9892 12.013 0 17.917h-14.092c-2.6008-5.9723-2.4437-11.945 0-17.917z" fill="#782121" opacity=".50605" stroke-width=".5"/><path d="m109.27 126.01h0.93462c1.0822 5.7361 1.6579 11.502 0 17.917h-0.93462c1.0769-5.9388 1.1321-11.979 0-17.917z" fill="#a02c2c" opacity=".5" stroke-width=".5"/></g><g transform="translate(-.67906 -53.751)"><path d="m29.666 143.92h88.998c3.3528 3.9456 2.7127 13.741 0 17.917h-88.998c-2.9459-3.0633-3.7886-13.171 0-17.917z" fill="url(#d)" stroke-width=".5"/><path d="m37.177 143.92h6.9577c-0.77133 5.6638-1.1692 11.477 0 17.917h-6.9577c-1.3707-5.9723-1.3707-11.945 0-17.917z" fill="#2d5016" opacity=".5" stroke-width=".5"/><path d="m114.85 143.92h0.93462c1.3699 5.7224 1.117 11.742 0 17.917h-0.93462c0.77703-5.671 1.2736-11.461 0-17.917z" fill="#9d7d00" opacity=".5" stroke-width=".5"/><path d="m46.367 143.92h3.1154c-0.77188 5.9723-0.66058 12.092-0.05192 18.064h-3.0115c-0.62794-5.9723-0.93765-12.092-0.05192-18.064z" fill="#2d5016" opacity=".5" stroke-width=".5"/><path d="m51.654 143.92h3.1154c-0.77188 5.9723-0.66058 12.092-0.05192 18.064h-3.0115c-0.62794-5.9723-0.93765-12.092-0.05192-18.064z" fill="#2d5016" opacity=".5" stroke-width=".5"/></g></g><g><g transform="translate(-23.677 5.8154)" stroke="#000" stroke-linecap="square" stroke-linejoin="round" stroke-width=".5"><path d="m126.26 88.105-89.085 0.13847c-0.96817 0.39368-0.33349 0.93495 0 1.2608 6.3199 6.1743 2.4811 12.625 0 15.449-0.37209 0.42345-0.38551 1.0527 0 1.3541l89.12-0.28534c0.36521-0.38718 0.16916-0.92845-0.0203-1.2239-4.1061-6.4036-2.6385-10.343-2e-5 -15.449 0.15495-0.29983 0.2802-0.95262-0.0148-1.2441 0-5e-6 -2e-5 0-2e-5 0zm0.0149 1.2441c-0.41712 0.59176-2.5908 7.6644 4e-5 15.449l-89.1 0.1551c0.76091-7.2827 1.3038-7.371 0-15.449l88.503-0.15406z" fill="url(#c)"/><path d="m37.177 89.504 89.1-0.1551c-2.8291 5.5916-3.2771 10.677 0 15.449l-89.1 0.1551s1.6636-5.1101 1.6615-7.7532c-2e-3 -2.6243-1.6615-7.6955-1.6615-7.6955z" fill="url(#b)"/></g><path transform="matrix(.68679 0 0 .69276 16.12 -13.37)" d="m122.86 168.63c0.11448-1.1751 0.34338-3.5247 0.34338-3.5247 4.7443 13.677 14.23 41.022 14.23 41.022-1.4754-1.0088-3.7131-2.5212-5.2846-4.1443-1.601-1.6535-2.4731-3.3412-2.4731-3.3412-0.54049 2.6417-1.203 5.5783-2.1563 8.9541-0.82592 2.925-1.4287 4.8427-1.4287 4.8427-1.077-14.603 2.8823-39.751-3.2309-43.808z" fill="url(#a)" stroke="#000" stroke-linecap="square" stroke-linejoin="round" stroke-width=".72488"/><path d="m25.478 99.101c0.90744-0.0264 1.3736-0.0416 2.4156-0.059 4.8114-0.0801 9.6395-0.0841 14.458-0.0977 6.2988-9e-3 12.598-0.0151 18.897-0.0163 2.8832-1e-3 5.7663 3.1e-4 8.6492 0.0127 0.23845 8.3e-4 0.47688 2e-3 0.71535 2e-3 4.7148 9e-3 -12.268 0.0198-6.6315-6e-3 0.54778-2e-3 1.0955-5e-3 1.6433-8e-3 0.76989-4e-3 1.5398-7e-3 2.3097-0.0107 3.9636-0.022 7.9246 0.0231 11.886 0.0449 3.2027 2e-3 6.3997 0.0425 9.5927 0.1077 0.8233 0.0163 1.6435 0.0415 2.4633 0.0677l9.1366-0.37591c-1.005-0.0179-2.01-0.0359-3.0155-0.0519-3.1959-0.0394-6.3893-0.0965-9.5875-0.11956-4.1539-2e-3 -8.3086 0.0112-12.462-0.0223-5.031-0.0301-10.063-0.0497-15.095-0.0224-2.5326 0.0162-5.0657 0.0215-7.5984 0.035-5.7308 0.0326-11.461 0.0799-17.193 0.0901-6.6551 0.0184-13.31 0.0326-19.966 0.032z" fill="#d1c591"/><path d="m23.92 108.97c0.90744-0.0264 1.3736-0.0416 2.4156-0.059 4.8114-0.0801 9.6395-0.0841 14.458-0.0977 6.2988-9e-3 12.598-0.0151 18.897-0.0163 2.8832-1e-3 5.7663 3.1e-4 8.6492 0.0127 0.23845 8.3e-4 0.47688 2e-3 0.71535 2e-3 4.7148 9e-3 -12.268 0.0198-6.6315-6e-3 0.54778-2e-3 1.0955-5e-3 1.6433-8e-3 0.76989-4e-3 1.5398-7e-3 2.3097-0.0107 3.9636-0.022 7.9246 0.0231 11.886 0.0449 3.2027 2e-3 6.3997 0.0425 9.5927 0.1077 0.8233 0.0163 1.6435 0.0415 2.4633 0.0677l9.1366-0.37591c-1.005-0.0179-2.01-0.0359-3.0155-0.0519-3.1959-0.0394-6.3893-0.0965-9.5875-0.11956-4.1539-2e-3 -8.3086 0.0112-12.462-0.0223-5.031-0.0301-10.063-0.0497-15.095-0.0224-2.5326 0.0162-5.0657 0.0215-7.5984 0.035-5.7308 0.0326-11.461 0.0799-17.193 0.0901-6.6551 0.0184-13.31 0.0326-19.966 0.032z" fill="#d1c591"/><path d="m28.423 104.61c0.86083-0.0264 1.3031-0.0416 2.2915-0.059 4.5643-0.0801 9.1444-0.0841 13.715-0.0977 5.9753-9e-3 11.951-0.0151 17.926-0.0163 2.7351-1e-3 5.4702 3.1e-4 8.205 0.0127 0.22621 8.3e-4 0.45239 2e-3 0.67861 2e-3 4.4727 9e-3 -11.637 0.0198-6.2909-6e-3 0.51964-2e-3 1.0393-5e-3 1.5589-8e-3 0.73034-4e-3 1.4607-7e-3 2.191-0.0107 3.76-0.022 7.5176 0.0231 11.276 0.0449 3.0382 2e-3 6.071 0.0425 9.1 0.1077 0.78101 0.0163 1.5591 0.0415 2.3367 0.0677l8.6674-0.37591c-0.95341-0.0179-1.9068-0.0359-2.8606-0.0519-3.0318-0.0394-6.0612-0.0965-9.0951-0.11956-3.9406-2e-3 -7.8819 0.0112-11.822-0.0223-4.7726-0.0301-9.546-0.0497-14.32-0.0224-2.4025 0.0162-4.8055 0.0215-7.2082 0.035-5.4364 0.0326-10.872 0.0799-16.31 0.0901-6.3133 0.0184-12.627 0.0326-18.941 0.032z" fill="#d1c591"/><path d="m23.958 102.63c0.86083-0.0264 1.3031-0.0416 2.2915-0.059 4.5643-0.0801 9.1444-0.0841 13.715-0.0977 5.9753-9e-3 11.951-0.0151 17.926-0.0163 2.7351-1e-3 5.4702 3.1e-4 8.205 0.0127 0.22621 8.3e-4 0.45239 2e-3 0.67861 2e-3 4.4727 9e-3 -11.637 0.0198-6.2909-6e-3 0.51964-2e-3 1.0393-5e-3 1.5589-8e-3 0.73034-4e-3 1.4607-7e-3 2.191-0.0107 3.76-0.022 7.5176 0.0231 11.276 0.0449 3.0382 2e-3 6.071 0.0425 9.1 0.1077 0.78101 0.0163 1.5591 0.0415 2.3367 0.0677l8.6674-0.37591c-0.95341-0.0179-1.9068-0.0359-2.8606-0.0519-3.0318-0.0394-6.0612-0.0965-9.0951-0.11956-3.9406-2e-3 -7.8819 0.0112-11.822-0.0223-4.7726-0.0301-9.546-0.0497-14.32-0.0224-2.4025 0.0162-4.8055 0.0215-7.2082 0.035-5.4364 0.0326-10.872 0.0799-16.31 0.0901-6.3133 0.0184-12.627 0.0326-18.941 0.032z" fill="#d1c591"/><path d="m23.713 98.167c0.90744-0.0264 1.3736-0.0416 2.4156-0.059 4.8114-0.0801 9.6395-0.0841 14.458-0.0977 6.2988-9e-3 12.598-0.0151 18.897-0.0163 2.8832-1e-3 5.7663 3.1e-4 8.6492 0.0127 0.23845 8.3e-4 0.47688 2e-3 0.71535 2e-3 4.7148 9e-3 -12.268 0.0198-6.6315-6e-3 0.54778-2e-3 1.0955-5e-3 1.6433-8e-3 0.76989-4e-3 1.5398-7e-3 2.3097-0.0107 3.9636-0.022 7.9246 0.0231 11.886 0.0449 3.2027 2e-3 6.3997 0.0425 9.5927 0.1077 0.8233 0.0163 1.6435 0.0415 2.4633 0.0677l9.1366-0.37591c-1.005-0.0179-2.01-0.0359-3.0155-0.0519-3.1959-0.0394-6.3893-0.0965-9.5875-0.11956-4.1539-2e-3 -8.3086 0.0112-12.462-0.0223-5.031-0.0301-10.063-0.0497-15.095-0.0224-2.5326 0.0162-5.0657 0.0215-7.5984 0.035-5.7308 0.0326-11.461 0.0799-17.193 0.0901-6.6551 0.0184-13.31 0.0326-19.966 0.032z" fill="#d1c591"/><path d="m23.333 107.94c0.90744-0.0264 1.3736-0.0416 2.4156-0.059 4.8114-0.0801 9.6395-0.0841 14.458-0.0977 6.2988-9e-3 12.598-0.0151 18.897-0.0163 2.8832-1e-3 5.7663 3.1e-4 8.6492 0.0127 0.23845 8.3e-4 0.47688 2e-3 0.71535 2e-3 4.7148 9e-3 -12.268 0.0198-6.6315-6e-3 0.54778-2e-3 1.0955-5e-3 1.6433-8e-3 0.76989-4e-3 1.5398-7e-3 2.3097-0.0107 3.9636-0.022 7.9246 0.0231 11.886 0.0449 3.2027 2e-3 6.3997 0.0425 9.5927 0.1077 0.8233 0.0163 1.6435 0.0415 2.4633 0.0677l9.1366-0.37591c-1.005-0.0179-2.01-0.0359-3.0155-0.0519-3.1959-0.0394-6.3893-0.0965-9.5875-0.11956-4.1539-2e-3 -8.3086 0.0112-12.462-0.0223-5.031-0.0301-10.063-0.0497-15.095-0.0224-2.5326 0.0162-5.0657 0.0215-7.5984 0.035-5.7308 0.0326-11.461 0.0799-17.193 0.0901-6.6551 0.0184-13.31 0.0326-19.966 0.032z" fill="#d1c591"/></g></g><g transform="matrix(.8456 0 0 .8456 7.0205 56.927)"><path transform="rotate(46.724 35.467 -5.8153)" d="m129.14 61.152c-0.45259 1.9997-0.38811 4.1142 0.18551 6.0826 0.96781 3.3211 3.3504 6.1196 6.2369 8.026s6.2538 2.9812 9.6566 3.6038c8.6396 1.5807 17.561 0.35711 26.099-1.7025 3.9121-0.94373 7.8986-2.0715 11.896-1.6072 1.9987 0.23217 3.9738 0.87836 5.608 2.0524 1.6342 1.174 2.9063 2.9011 3.3448 4.865 0.28558 1.279 0.21306 2.6361-0.20722 3.8774s-1.1871 2.3633-2.191 3.2058-2.2419 1.403-3.5373 1.6015c-1.2954 0.19852-2.6444 0.03448-3.8545-0.46871" fill="none" stroke="#000" stroke-linecap="round" stroke-linejoin="round" stroke-width="10"/><path d="m97.935 109.26c-0.16669-0.0304-0.33197-0.0483-0.49581-0.0535-4.7133-0.14696-8.9499 4.4704-7.5429 6.7002 6.6362 10.516 17.678 17.804 21.938 20.166 0.9438 3.3484 2.827 6.0528 4.2382 6.1921 0.3874 0.19244 0.84828 0.63968 0.84828 0.63968l-0.15735-0.80406c0.12936-0.0886 0.25115-0.2081 0.36206-0.36674 0.46948 0.4954 1.9616 0.78269 3.2076 0.38816 0.50857 0.29758 1.0002 0.7253 1.0002 0.7253l-0.26936-1.0653c0.42032-0.26947 0.76678-0.65247 0.96241-1.182 1.0779-0.0161 2.0035-0.67096 2.6285-1.495 0.46154 0.20556 0.86745 0.4568 0.86745 0.4568l-0.46675-1.0765c0.44878-0.84254 0.58432-1.7385 0.26849-2.279 0.3209-0.2151 0.6582-0.63755 0.92826-1.1543 0.54866 0.0331 1.0951 0.15439 1.0951 0.15439l-0.7929-0.85926c0.59034-1.7916 0.14643-4.1225-3.9721-4.092-0.72819 6e-3 1.5092-0.56034 1.6621-1.6837 0.34086-0.10695 0.61443-0.16771 0.61443-0.16771l-0.67333-0.27574c-0.0469-0.13445-0.11326-0.27274-0.2277-0.41975-0.87414-1.1232-5.8621-1.5457-6.4645-1.7762-7.8347-2.9977-14.39-15.73-19.558-16.672z" stroke-linecap="round" stroke-width="6.0018"/><path d="m110.52 99.664c-19.758-11.931-58.017-14.559-63.425 5.5937-10.391 38.73 37.721 42.224 53.517 25.788 3.8344 5.4471 25.377 1.4511 25.239-4.1578-0.52398-21.34-3.3734-20.002-15.332-27.224z" stroke-linecap="round" stroke-linejoin="round" stroke-width="2.0383"/><g transform="rotate(59.912 138.5 111.12)"><g transform="matrix(2.0383 0 0 2.0383 -188.7 -55.763)"><path d="m174.84 68.705-7.799 4.2389c-2.3687-1.4369-6.3452-2.5745-12.585-0.98912l-5.2818-6.7346c1.0462 5.1983 0.43292 8.4242-1.0533 13.141-2.0781 6.0614 1.5194 11.54 8.5825 12.922 8.2767 1.6192 13.992 1.6028 16.07-4.4586 1.1185-3.2624 0.80458-6.0992-0.30505-8.8757-1.3788-3.45 0.54195-6.0603 2.3724-9.2436z" stroke-linecap="square" stroke-linejoin="round" stroke-width=".5"/><path d="m158.84 86.053c1.0812-1.2287 2.3546-1.0627 3.4866 0.0295 0.0267 0.20552 0.0949 0.41956-0.20642 0.55897-1.3558-0.33423-1.1632 0.6159-1.2218 1.5818-0.21317 0.20611-0.42615 0.20852-0.63895 6e-3 -0.013-0.94764 0.21108-1.8072-1.2754-1.5617-0.15533-0.0672-0.22698-0.24172-0.144-0.61446z" fill="#fff" stroke-linecap="square" stroke-linejoin="round" stroke-width=".5"/><g transform="matrix(.6933 .063051 -.062496 .69297 157.92 19.053)" stroke-width="1.4368"><g transform="rotate(-13.594 -77.289 193.84)" fill-rule="evenodd" stroke="#000" stroke-linecap="round" stroke-linejoin="round" stroke-width=".71842"><path transform="rotate(-40.832 47.762 100.66)" d="m17.036 93.403-6.1681-2.3498"/><path transform="translate(2.6435 21.515)" d="m17.036 93.403-6.1681-2.3498"/><path transform="rotate(-19.266 82.607 96.345)" d="m17.036 93.403-6.1681-2.3498"/></g></g><g transform="matrix(-.69593 .015192 .01578 .69567 182.52 4.9302)" fill-rule="evenodd" stroke="#000" stroke-linecap="round" stroke-linejoin="round" stroke-width=".71842"><path transform="rotate(-40.832 47.762 100.66)" d="m17.036 93.403-6.1681-2.3498"/><path transform="translate(2.6435 21.515)" d="m17.036 93.403-6.1681-2.3498"/><path transform="rotate(-19.266 82.607 96.345)" d="m17.036 93.403-6.1681-2.3498"/></g><ellipse transform="rotate(15.23)" cx="178.52" cy="45.586" rx="3.6346" ry="2.2846" stroke-linecap="round" stroke-width="10"/></g><g transform="matrix(.9204 .0038121 -.0040276 .92076 56.173 28.227)" stroke-width="1.1741"><g transform="matrix(1.2141 0 0 1.2141 -4.9209 -30.993)" stroke-linecap="square" stroke-linejoin="round"><ellipse transform="scale(1,-1)" cx="70.713" cy="-102.44" rx="4.9198" ry="4.6217" fill="#fff" stroke-width=".48355"/><circle cx="70.619" cy="103.12" r="3.7652" stroke-width=".48355"/></g><circle cx="82.876" cy="91.72" r="1.0196" fill="#fff" fill-rule="evenodd"/></g><g transform="matrix(2.1208 .48312 -.48312 2.1208 -97.524 -221.77)"><circle cx="137.78" cy="128.8" r=".22029" fill="#fff" stroke-linecap="square" stroke-linejoin="round"/></g><ellipse transform="matrix(.99334 -.11521 .1445 .98951 0 0)" cx="112.82" cy="127.44" rx="5.8988" ry="5.1097" stroke-linecap="square" stroke-linejoin="round" stroke-width="2.0972"/><g transform="translate(17.917 1.3217)"><g transform="matrix(.9204 .0038121 -.0040276 .92076 56.173 28.227)" stroke-width="1.1741"><g transform="matrix(1.2141 0 0 1.2141 -4.9209 -30.993)" stroke-linecap="square" stroke-linejoin="round"><ellipse transform="scale(1,-1)" cx="70.713" cy="-102.44" rx="4.9198" ry="4.6217" fill="#fff" stroke-width=".48355"/><circle cx="70.619" cy="103.12" r="3.7652" stroke-width=".48355"/></g><circle cx="82.876" cy="91.72" r="1.0196" fill="#fff" fill-rule="evenodd"/></g><g transform="matrix(2.1208 .48312 -.48312 2.1208 -97.524 -221.77)"><circle cx="137.78" cy="128.8" r=".22029" fill="#fff" stroke-linecap="square" stroke-linejoin="round"/></g><ellipse transform="matrix(.99334 -.11521 .1445 .98951 0 0)" cx="112.82" cy="127.44" rx="5.8988" ry="5.1097" stroke-linecap="square" stroke-linejoin="round" stroke-width="2.0972"/></g></g><g transform="rotate(-12.373 323.42 150.86)" stroke-linecap="round"><path d="m112.33 71.316c-0.16944-0.0014-0.33536 0.0091-0.49764 0.03204-4.669 0.66092-8.054 5.9346-6.2864 7.891 8.3362 9.2272 20.461 14.519 25.063 16.119 1.5023 3.1378 3.8201 5.4804 5.2343 5.3764 0.41459 0.12341 0.94516 0.48524 0.94516 0.48524l-0.29248-0.76532c0.11238-0.10937 0.21187-0.24796 0.29403-0.42323 0.54725 0.40785 2.0665 0.43585 3.2267-0.16588 0.55196 0.2063 1.1095 0.54363 1.1095 0.54363l-0.44751-1.0036c0.36807-0.33736 0.64395-0.77394 0.7462-1.3291 1.0592-0.20011 1.8593-1.0036 2.3342-1.9224 0.48987 0.12368 0.93276 0.30179 0.93276 0.30179l-0.64389-0.98082c0.29818-0.90685 0.27854-1.8128-0.12506-2.2913 0.27941-0.2668 0.53951-0.7407 0.71727-1.296 0.54624-0.06113 1.1054-0.03514 1.1054-0.03514l-0.92811-0.71107c0.27539-1.8662-0.56046-4.0868-4.6132-3.3528-0.71655 0.12979 1.3912-0.81011 1.3498-1.943 0.31757-0.16364 0.57671-0.27027 0.57671-0.27027l-0.71055-0.15658c-0.0691-0.12442-0.15823-0.24936-0.2961-0.37465-1.0533-0.95718-6.04-0.5208-6.673-0.64492-8.2318-1.6142-16.868-13.039-22.121-13.083z" stroke-width="6.0018"/><ellipse transform="rotate(101.39)" cx="60.895" cy="-156.95" rx=".78481" ry="1.6935" fill="#fff" stroke-width="4.0206"/><ellipse transform="rotate(120.1)" cx="10.913" cy="-169.45" rx=".91155" ry="1.967" fill="#fff" stroke-width="4.6699"/><ellipse transform="rotate(150.25)" cx="-71.907" cy="-153.12" rx=".82377" ry="1.7776" fill="#fff" stroke-width="4.2202"/><ellipse transform="rotate(93.594)" cx="77.107" cy="-143.68" rx=".667" ry="1.4393" fill="#fff" stroke-width="3.4171"/><ellipse transform="rotate(148.27)" cx="-62.794" cy="-154.71" rx=".82377" ry="1.7776" fill="#fff" stroke-width="4.2202"/></g><g transform="matrix(.62883 -.011005 .011005 .62883 -44.225 166.92)" stroke-linecap="round"><g transform="matrix(.69361 .389 -.389 .69361 321.87 -314.58)"><path d="m19.937 364.08c14.097 8.1424 26.98-14.876 58.38-17.474 3.6706-0.30361 11.999-0.35219 15.261-2.0635 2.7849-1.4612 4.8959-5.804 2.0114-9.4642 2.4153-4.0798-1.1743-10.152-4.0483-10.211-0.1425-3.4681-6.7838-11.877-13.01-1.5389-0.92392 1.5342 1.3647-5.4844-2.9068-5.0044-2.8278 0.31778-8.7556 8.3815-9.7776 9.168-13.721 10.559-43.706 7.9629-49.458 16.731-5.1719 7.8831-1.0156 17.22 3.5492 19.857z" stroke-width="12"/><ellipse transform="rotate(52.71)" cx="309.84" cy="129.06" rx="1.5691" ry="3.386" fill="#fff" stroke-width="8.0388"/><ellipse transform="rotate(71.421)" cx="342.03" cy="20.327" rx="1.8225" ry="3.9328" fill="#fff" stroke-width="9.337"/><ellipse transform="rotate(85.958)" cx="345.1" cy="-67.608" rx="1.647" ry="3.5541" fill="#fff" stroke-width="8.4379"/><ellipse transform="rotate(44.919)" cx="280.47" cy="177.01" rx="1.3336" ry="2.8777" fill="#fff" stroke-width="6.832"/></g><path d="m241.34-48.184c0.54144 1.5655 2.5692 1.155 4.4829 0.12225 0 0 2.6445 0.71038 3.4369-0.27839 0.91205-1.1381 1.484-2.8714 0.5929-4.8155-0.62085-1.3548-1.8637-1.8867-2.9934-2.4662-0.92-1.4623-2.616-2.3814-4.0143-1.9398-1.0777 0.66982-0.83714 1.7096-0.27768 2.5578-2.0914 1.2214-1.6673 2.5177-0.763 4.8137-0.2323 0.31074-0.79631 1.3505-0.46433 2.0062z" fill="#fff" stroke-width="25.833"/></g><g transform="matrix(.62253 .089486 -.089486 .62253 -58.112 145.26)" stroke-linecap="round"><g transform="matrix(.69361 .389 -.389 .69361 321.87 -314.58)"><path d="m19.937 364.08c14.097 8.1424 26.98-14.876 58.38-17.474 3.6706-0.30361 11.999-0.35219 15.261-2.0635 2.7849-1.4612 4.8959-5.804 2.0114-9.4642 2.4153-4.0798-1.1743-10.152-4.0483-10.211-0.1425-3.4681-6.7838-11.877-13.01-1.5389-0.92392 1.5342 1.3647-5.4844-2.9068-5.0044-2.8278 0.31778-8.7556 8.3815-9.7776 9.168-13.721 10.559-43.706 7.9629-49.458 16.731-5.1719 7.8831-1.0156 17.22 3.5492 19.857z" stroke-width="12"/><ellipse transform="rotate(52.71)" cx="309.84" cy="129.06" rx="1.5691" ry="3.386" fill="#fff" stroke-width="8.0388"/><ellipse transform="rotate(71.421)" cx="342.03" cy="20.327" rx="1.8225" ry="3.9328" fill="#fff" stroke-width="9.337"/><ellipse transform="rotate(85.958)" cx="345.1" cy="-67.608" rx="1.647" ry="3.5541" fill="#fff" stroke-width="8.4379"/><ellipse transform="rotate(44.919)" cx="280.47" cy="177.01" rx="1.3336" ry="2.8777" fill="#fff" stroke-width="6.832"/></g><path d="m241.34-48.184c0.54144 1.5655 2.5692 1.155 4.4829 0.12225 0 0 2.6445 0.71038 3.4369-0.27839 0.91205-1.1381 1.484-2.8714 0.5929-4.8155-0.62085-1.3548-1.8637-1.8867-2.9934-2.4662-0.92-1.4623-2.616-2.3814-4.0143-1.9398-1.0777 0.66982-1.5464 1.9713-0.98695 2.8195-2.0914 1.2214-0.95801 2.2559-0.0537 4.552-0.2323 0.31074-0.79631 1.3505-0.46433 2.0062z" fill="#fff" stroke-width="25.833"/></g></g></g></svg>